<svg xmlns="http://www.w3.org/2000/svg" xmlns:xlink="http://www.w3.org/1999/xlink" width="250" zoomAndPan="magnify" viewBox="0 0 187.5 37.5" height="50" preserveAspectRatio="xMidYMid meet" version="1.0"><defs><g/><clipPath id="289fdfc931"><path d="M 2 0 L 34.382812 0 L 34.382812 37 L 2 37 Z M 2 0 " clip-rule="nonzero"/></clipPath></defs><g clip-path="url(#289fdfc931)"><path fill="#fb7185" d="M 11.148438 21.957031 C 12.894531 22.683594 17.242188 24.1875 18.855469 22.960938 C 19.136719 22.746094 19.179688 22.511719 18.917969 22.257812 C 17.636719 20.992188 12.828125 21.664062 11.148438 21.957031 Z M 20.082031 29.292969 C 19.011719 30.113281 17.777344 30.566406 16.511719 31.003906 C 15 32.574219 14.523438 33.023438 14.308594 35.574219 C 14.253906 36.226562 14.359375 36.445312 14.828125 35.855469 C 15.085938 35.53125 15.3125 35.101562 15.695312 34.527344 C 16.996094 32.566406 18.828125 32.753906 20.082031 29.292969 Z M 24.386719 25.59375 C 23.246094 26.085938 22.722656 26.535156 21.949219 27.445312 C 22.21875 27.398438 22.535156 27.371094 22.914062 27.363281 C 23.40625 27.351562 23.945312 27.203125 24.28125 26.824219 C 24.644531 26.40625 24.574219 26.050781 24.386719 25.59375 Z M 20.835938 27.902344 C 22.0625 26.621094 22.386719 25.890625 24.191406 25.113281 C 23.949219 24.492188 23.9375 24.175781 24.382812 23.296875 C 27.097656 17.964844 27.441406 12.117188 23.554688 7.28125 C 20.078125 2.953125 13.890625 0.539062 8.394531 1.34375 C 6.019531 1.691406 5.007812 3.019531 5.359375 5.402344 C 6.0625 10.140625 9.867188 11.332031 6.59375 16.386719 C 5.785156 17.632812 5.160156 18.59375 7.011719 19.804688 C 8.027344 20.464844 9.15625 21.070312 10.296875 21.589844 C 12.304688 21.195312 17.714844 20.339844 19.289062 21.890625 C 19.773438 22.371094 19.707031 22.964844 19.171875 23.371094 C 17.230469 24.851562 12.382812 23.089844 10.230469 22.128906 C 8.101562 22.554688 6.046875 23.164062 4.609375 23.8125 C 3.222656 24.4375 1.609375 25.335938 3.949219 26.070312 C 6.339844 26.820312 7.640625 27.992188 8.785156 29.027344 C 10.371094 30.453125 11.640625 31.597656 15.273438 30.796875 C 17.761719 30.203125 19.308594 29.492188 20.835938 27.902344 Z M 15.636719 31.226562 C 12.1875 32.097656 10.796875 31.535156 8.4375 29.410156 C 7.332031 28.414062 6.074219 27.28125 3.792969 26.566406 C 0.988281 25.6875 2.359375 24.257812 4.394531 23.339844 C 5.707031 22.746094 7.523438 22.1875 9.449219 21.765625 C 8.503906 21.308594 7.574219 20.792969 6.726562 20.238281 C 4.441406 18.746094 5.1875 17.597656 6.152344 16.105469 C 9.234375 11.351562 5.53125 10.136719 4.84375 5.480469 C 4.449219 2.808594 5.660156 1.21875 8.316406 0.828125 C 14 0 20.371094 2.484375 23.964844 6.957031 C 27.980469 11.957031 27.660156 18.011719 24.847656 23.53125 C 24.582031 24.050781 24.523438 24.324219 24.589844 24.640625 C 26.492188 22.917969 27.945312 22.003906 30.480469 21.441406 C 30.816406 21.367188 30.902344 21.839844 30.566406 21.910156 C 28.324219 22.410156 26.957031 23.21875 25.25 24.710938 C 27.988281 23.871094 31.390625 23.882812 34.132812 24.21875 C 34.277344 24.238281 34.378906 24.367188 34.359375 24.511719 C 34.34375 24.652344 34.210938 24.753906 34.070312 24.738281 C 31.203125 24.382812 27.625 24.386719 24.871094 25.398438 C 25.136719 26.046875 25.175781 26.589844 24.675781 27.160156 C 24.242188 27.660156 23.570312 27.867188 22.921875 27.878906 C 21.128906 27.917969 20.921875 28.496094 20.613281 29.359375 C 19.269531 33.101562 17.46875 32.796875 16.128906 34.816406 C 15.769531 35.351562 15.511719 35.832031 15.214844 36.175781 C 14.421875 37.105469 13.71875 36.964844 13.792969 35.582031 C 13.878906 33.945312 14.324219 32.285156 15.636719 31.226562 " fill-opacity="1" fill-rule="evenodd"/></g><g fill="#fb7185" fill-opacity="1"><g transform="translate(32.48892, 25.112833)"><g><path d="M 14.683594 -2.992188 C 14.851562 -3.222656 14.875 -3.457031 14.746094 -3.6875 C 14.789062 -3.75 14.789062 -3.792969 14.789062 -3.855469 C 14.746094 -3.917969 14.789062 -4.003906 14.707031 -4.085938 C 14.707031 -4.109375 14.726562 -4.152344 14.746094 -4.171875 C 14.746094 -4.214844 14.789062 -4.234375 14.789062 -4.234375 C 14.789062 -4.253906 14.746094 -4.277344 14.726562 -4.277344 C 14.707031 -4.296875 14.683594 -4.296875 14.640625 -4.296875 C 14.726562 -4.382812 14.746094 -4.425781 14.726562 -4.53125 L 14.578125 -5.203125 C 14.515625 -5.519531 14.453125 -5.855469 14.304688 -6.152344 C 14.199219 -6.40625 14.03125 -6.636719 13.882812 -6.890625 C 13.757812 -7.101562 13.632812 -7.332031 13.441406 -7.519531 C 13.125 -7.835938 12.808594 -8.152344 12.472656 -8.449219 C 12.347656 -8.554688 12.199219 -8.660156 12.03125 -8.742188 C 11.882812 -8.847656 11.734375 -8.910156 11.566406 -9.015625 C 11.628906 -9.101562 11.714844 -9.3125 11.714844 -9.375 C 11.691406 -9.417969 11.652344 -9.460938 11.585938 -9.542969 C 11.585938 -9.566406 11.441406 -9.648438 11.441406 -9.605469 C 11.398438 -9.605469 11.335938 -9.628906 11.3125 -9.648438 L 11.0625 -9.796875 C 10.996094 -9.882812 10.933594 -9.882812 10.851562 -9.796875 C 10.765625 -9.691406 10.683594 -9.585938 10.617188 -9.460938 L 10.578125 -9.417969 C 10.367188 -9.460938 10.007812 -9.542969 9.777344 -9.566406 C 9.417969 -9.585938 9.039062 -9.605469 8.636719 -9.605469 C 8.363281 -9.605469 8.027344 -9.585938 7.753906 -9.566406 C 7.5 -9.542969 7.269531 -9.5 7.015625 -9.460938 C 6.722656 -9.417969 6.574219 -9.355469 6.195312 -9.25 L 6.027344 -9.25 C 5.941406 -9.1875 5.855469 -9.207031 5.75 -9.164062 C 5.5625 -9.082031 5.371094 -8.996094 5.183594 -8.890625 L 5.121094 -8.742188 L 4.992188 -8.679688 L 4.507812 -8.46875 L 4.382812 -8.386719 C 4.253906 -8.320312 4.085938 -8.28125 3.941406 -8.175781 C 3.8125 -8.132812 3.707031 -8.046875 3.601562 -7.984375 C 3.390625 -7.835938 3.140625 -7.730469 2.949219 -7.5625 C 2.78125 -7.4375 2.613281 -7.269531 2.445312 -7.140625 C 2.210938 -6.953125 2.023438 -6.722656 1.855469 -6.46875 L 1.789062 -6.40625 C 1.769531 -6.40625 1.769531 -6.425781 1.769531 -6.425781 C 1.769531 -6.445312 1.769531 -6.46875 1.789062 -6.511719 C 1.621094 -6.425781 1.644531 -6.257812 1.539062 -6.152344 C 1.453125 -6.046875 1.390625 -5.878906 1.328125 -5.75 C 1.199219 -5.394531 1.09375 -5.054688 1.074219 -4.699219 C 1.03125 -4.570312 1.03125 -4.425781 1.074219 -4.277344 C 1.074219 -4.085938 1.074219 -3.898438 1.117188 -3.707031 C 1.242188 -3.222656 1.390625 -2.800781 1.707031 -2.378906 C 1.960938 -2.023438 2.296875 -1.75 2.613281 -1.476562 L 3.035156 -1.160156 L 3.496094 -0.925781 C 3.601562 -0.863281 3.730469 -0.820312 3.855469 -0.757812 L 4.53125 -0.546875 C 4.613281 -0.527344 4.675781 -0.527344 4.78125 -0.464844 L 4.613281 -0.230469 L 4.046875 0.527344 L 3.898438 0.757812 L 3.457031 1.390625 L 3.222656 1.683594 L 3.117188 1.917969 L 3.074219 2.085938 C 3.246094 2.296875 3.457031 2.464844 3.707031 2.550781 L 3.980469 2.273438 C 4.066406 2.171875 4.214844 2 4.234375 1.960938 L 4.445312 1.664062 L 4.570312 1.476562 C 4.71875 1.601562 4.886719 1.726562 5.054688 1.855469 C 5.414062 2.105469 5.667969 2.296875 6.027344 2.445312 L 6.910156 2.800781 C 7.078125 2.867188 7.269531 2.886719 7.4375 2.929688 C 7.667969 2.992188 7.902344 3.054688 8.175781 3.074219 L 8.34375 3.074219 L 8.34375 3.054688 L 8.109375 2.96875 L 8.132812 2.949219 L 8.386719 2.949219 C 8.511719 2.949219 8.636719 2.929688 8.722656 2.949219 C 8.910156 2.992188 9.015625 2.929688 9.542969 2.800781 L 9.628906 2.800781 C 9.839844 2.824219 10.175781 2.738281 10.261719 2.738281 L 10.640625 2.550781 L 10.640625 2.527344 L 10.746094 2.339844 C 10.828125 2.273438 10.957031 2.253906 11.101562 2.191406 L 12.15625 1.601562 C 12.558594 1.265625 12.9375 0.949219 13.042969 0.800781 L 13.652344 -0.0195312 L 13.925781 -0.546875 L 14.011719 -0.738281 L 14.410156 -1.707031 C 14.472656 -1.707031 14.496094 -1.75 14.515625 -1.769531 L 14.621094 -1.875 C 14.621094 -1.980469 14.621094 -2.191406 14.640625 -2.191406 C 14.726562 -2.234375 14.746094 -2.273438 14.664062 -2.378906 C 14.746094 -2.402344 14.726562 -2.464844 14.683594 -2.484375 L 14.746094 -2.65625 C 14.789062 -2.695312 14.789062 -2.71875 14.789062 -2.761719 C 14.851562 -2.90625 14.832031 -2.929688 14.683594 -2.992188 Z M 4.359375 -1.011719 C 4.109375 -1.09375 3.855469 -1.160156 3.582031 -1.285156 L 3.246094 -1.453125 C 3.117188 -1.539062 2.96875 -1.621094 2.867188 -1.75 C 2.761719 -1.8125 2.695312 -1.9375 2.613281 -2 C 2.570312 -2.042969 2.507812 -2.105469 2.421875 -2.148438 C 2.402344 -2.210938 2.378906 -2.296875 2.339844 -2.359375 C 2.316406 -2.402344 2.234375 -2.464844 2.234375 -2.550781 L 2.023438 -2.929688 L 2.023438 -2.949219 L 1.960938 -3.265625 C 1.789062 -3.433594 1.832031 -3.539062 1.894531 -3.625 L 1.789062 -3.6875 C 1.789062 -3.769531 1.8125 -3.875 1.8125 -3.941406 C 1.832031 -4.046875 1.832031 -4.109375 1.832031 -4.171875 L 1.875 -4.402344 L 1.726562 -4.507812 C 1.832031 -4.488281 1.875 -4.570312 1.875 -4.65625 C 1.855469 -4.742188 1.875 -4.804688 1.894531 -4.847656 L 1.980469 -5.121094 L 2.085938 -5.265625 C 2.191406 -5.457031 2.253906 -5.667969 2.378906 -5.855469 C 2.484375 -6.003906 2.613281 -6.109375 2.738281 -6.257812 L 2.96875 -6.550781 L 3.011719 -6.59375 C 3.054688 -6.617188 3.097656 -6.617188 3.117188 -6.636719 C 3.308594 -6.867188 3.582031 -6.996094 3.792969 -7.164062 C 4.085938 -7.417969 4.382812 -7.5 4.675781 -7.667969 L 4.824219 -7.773438 C 4.847656 -7.796875 4.886719 -7.816406 4.949219 -7.835938 C 4.992188 -7.835938 5.054688 -7.835938 5.054688 -7.859375 C 5.203125 -8.046875 5.4375 -8.109375 5.644531 -8.238281 C 5.75 -8.28125 5.878906 -8.300781 6.003906 -8.363281 C 6.089844 -8.386719 6.132812 -8.425781 6.214844 -8.46875 L 6.382812 -8.554688 C 6.488281 -8.597656 6.574219 -8.574219 6.679688 -8.617188 C 6.929688 -8.703125 7.183594 -8.828125 7.5 -8.890625 C 7.796875 -8.933594 8.046875 -9.015625 8.449219 -9.058594 C 9.292969 -9.164062 9.691406 -9.121094 10.367188 -8.996094 L 9.816406 -8.214844 C 9.753906 -8.109375 9.691406 -8.027344 9.628906 -7.941406 C 7.835938 -5.015625 7.015625 -3.75 6.234375 -2.507812 L 6.214844 -2.421875 C 6.195312 -2.421875 6.109375 -2.378906 6.089844 -2.339844 C 5.941406 -2.148438 5.835938 -1.9375 5.6875 -1.75 C 5.5 -1.476562 5.308594 -1.222656 5.121094 -0.925781 C 5.054688 -0.863281 4.992188 -0.863281 4.886719 -0.886719 C 4.71875 -0.949219 4.550781 -0.96875 4.359375 -1.011719 Z M 13.988281 -3.390625 C 13.96875 -3.222656 13.96875 -3.054688 13.945312 -2.90625 C 13.882812 -2.695312 13.84375 -2.484375 13.777344 -2.273438 L 13.546875 -1.683594 C 13.421875 -1.328125 13.230469 -0.988281 13.019531 -0.652344 C 12.9375 -0.464844 12.789062 -0.296875 12.640625 -0.0429688 C 12.621094 -0.0429688 12.621094 -0.0195312 12.621094 0 L 12.324219 0.335938 L 12.199219 0.464844 L 12.113281 0.570312 C 12.050781 0.609375 11.96875 0.695312 11.925781 0.738281 C 11.863281 0.757812 11.777344 0.96875 11.398438 1.199219 L 11.355469 1.199219 L 11.019531 1.410156 C 10.828125 1.539062 10.660156 1.664062 10.492188 1.769531 L 9.988281 2.023438 L 9.988281 2.105469 C 9.902344 2.105469 9.796875 2.085938 9.734375 2.105469 C 9.523438 2.171875 9.332031 2.234375 9.101562 2.273438 C 8.910156 2.339844 8.722656 2.339844 8.53125 2.359375 L 7.816406 2.445312 C 7.4375 2.464844 7.183594 2.445312 6.804688 2.339844 C 6.59375 2.273438 6.339844 2.191406 6.109375 2.085938 C 5.898438 1.980469 5.5625 1.789062 5.332031 1.621094 C 5.121094 1.476562 4.949219 1.285156 4.824219 1.136719 L 5.121094 0.738281 C 5.246094 0.546875 5.351562 0.421875 5.4375 0.230469 C 5.519531 0.125 5.582031 0 5.6875 -0.0859375 C 5.773438 -0.210938 5.816406 -0.230469 5.878906 -0.335938 L 5.921875 -0.421875 C 6.132812 -0.484375 6.382812 -0.398438 6.53125 -0.441406 C 6.59375 -0.441406 6.636719 -0.441406 6.722656 -0.421875 C 6.972656 -0.398438 7.246094 -0.527344 7.5 -0.527344 C 7.941406 -0.527344 8.34375 -0.609375 8.742188 -0.652344 L 9.164062 -0.757812 C 9.25 -0.78125 9.5 -0.800781 9.566406 -0.925781 C 9.605469 -0.949219 9.734375 -0.949219 9.753906 -0.949219 L 10.21875 -1.011719 L 10.21875 -1.074219 C 10.175781 -1.074219 10.132812 -1.117188 10.113281 -1.117188 C 10.007812 -1.09375 9.921875 -1.09375 9.839844 -1.074219 C 9.734375 -1.054688 9.648438 -1.054688 9.566406 -1.054688 L 8.996094 -0.96875 L 8.554688 -0.949219 L 7.964844 -0.863281 L 7.816406 -0.863281 C 7.269531 -0.800781 6.722656 -0.78125 6.132812 -0.757812 C 6.171875 -0.78125 6.171875 -0.800781 6.195312 -0.800781 C 6.277344 -0.988281 6.40625 -1.160156 6.53125 -1.328125 C 6.550781 -1.390625 6.550781 -1.433594 6.574219 -1.476562 L 6.785156 -1.683594 C 6.824219 -1.769531 6.847656 -1.832031 6.910156 -1.9375 C 6.996094 -2.023438 7.101562 -2.128906 7.164062 -2.234375 L 7.4375 -2.675781 C 7.480469 -2.761719 7.542969 -2.867188 7.625 -2.929688 C 7.667969 -3.035156 7.753906 -3.097656 7.796875 -3.203125 C 7.859375 -3.265625 7.878906 -3.351562 7.964844 -3.414062 C 8.027344 -3.519531 8.132812 -3.601562 8.175781 -3.730469 C 8.214844 -3.855469 8.300781 -3.941406 8.363281 -4.046875 L 8.363281 -4.128906 C 8.492188 -4.152344 8.511719 -4.234375 8.554688 -4.320312 C 8.703125 -4.570312 8.871094 -4.824219 9.015625 -5.097656 L 9.4375 -5.75 C 9.542969 -5.898438 9.585938 -6.089844 9.734375 -6.214844 C 9.839844 -6.363281 9.921875 -6.574219 10.007812 -6.742188 L 10.050781 -6.847656 C 10.113281 -6.910156 10.175781 -6.972656 10.238281 -7.078125 C 10.367188 -7.289062 10.511719 -7.5 10.640625 -7.730469 C 10.785156 -7.921875 10.890625 -8.109375 11.019531 -8.28125 C 11.125 -8.425781 11.1875 -8.554688 11.292969 -8.679688 C 11.375 -8.660156 11.460938 -8.617188 11.523438 -8.574219 L 11.523438 -8.617188 L 11.902344 -8.320312 C 11.925781 -8.300781 11.925781 -8.28125 11.945312 -8.28125 L 12.621094 -7.625 L 12.746094 -7.5 C 12.808594 -7.417969 12.914062 -7.289062 12.976562 -7.164062 L 13.421875 -6.445312 C 13.460938 -6.382812 13.527344 -6.277344 13.589844 -6.257812 L 13.589844 -6.152344 L 13.652344 -5.984375 C 13.695312 -5.816406 13.738281 -5.625 13.800781 -5.476562 C 13.925781 -5.308594 13.863281 -5.121094 13.925781 -4.949219 C 13.988281 -4.761719 13.96875 -4.53125 13.96875 -4.339844 C 13.988281 -4.171875 13.96875 -4.003906 13.988281 -3.855469 C 13.988281 -3.792969 14.03125 -3.75 14.03125 -3.6875 C 14.011719 -3.582031 13.988281 -3.476562 13.988281 -3.390625 Z M 13.988281 -3.390625 "/></g></g></g><g fill="#fb7185" fill-opacity="1"><g transform="translate(47.944329, 25.112833)"><g><path d="M 0.464844 0.378906 C 0.632812 0.441406 0.714844 0.398438 0.757812 0.148438 C 0.800781 0 0.800781 -0.148438 0.84375 -0.296875 C 0.90625 -0.484375 0.925781 -0.675781 1.011719 -0.886719 C 1.136719 -1.136719 1.304688 -1.371094 1.433594 -1.664062 C 1.582031 -1.917969 1.75 -2.128906 1.894531 -2.339844 L 2.296875 -2.867188 C 2.402344 -2.96875 2.527344 -3.074219 2.65625 -3.179688 C 2.695312 -3.246094 2.738281 -3.328125 2.800781 -3.351562 C 2.929688 -3.433594 3.054688 -3.476562 3.140625 -3.582031 C 3.265625 -3.6875 3.390625 -3.664062 3.519531 -3.664062 C 3.792969 -3.539062 3.917969 -3.601562 3.917969 -3.601562 L 3.941406 -3.707031 C 3.898438 -3.8125 3.855469 -3.898438 3.769531 -3.960938 C 3.730469 -3.960938 3.707031 -4.003906 3.6875 -4.023438 C 3.601562 -4.109375 3.496094 -4.191406 3.390625 -4.277344 C 3.140625 -4.425781 2.84375 -4.425781 2.570312 -4.214844 C 2.339844 -4.066406 2.105469 -3.898438 1.917969 -3.625 C 1.769531 -3.476562 1.644531 -3.371094 1.539062 -3.179688 C 1.515625 -3.117188 1.433594 -3.054688 1.371094 -2.96875 C 1.371094 -3.074219 1.410156 -3.140625 1.410156 -3.203125 C 1.433594 -3.390625 1.410156 -3.582031 1.347656 -3.75 C 1.265625 -4.066406 1.09375 -4.171875 0.886719 -4.085938 C 0.820312 -4.085938 0.738281 -4.046875 0.695312 -3.980469 C 0.675781 -3.960938 0.675781 -3.875 0.652344 -3.835938 C 0.609375 -3.539062 0.546875 -3.265625 0.503906 -2.96875 C 0.464844 -2.695312 0.359375 -2.402344 0.316406 -2.105469 C 0.316406 -1.875 0.230469 -1.644531 0.191406 -1.410156 L 0.0195312 -0.546875 C -0.0429688 -0.273438 0.0625 -0.0625 0.148438 0.148438 C 0.316406 0.230469 0.335938 0.316406 0.464844 0.378906 Z M 0.464844 0.378906 "/></g></g></g><g fill="#fb7185" fill-opacity="1"><g transform="translate(51.439259, 25.112833)"><g><path d="M 7.984375 -2.800781 L 7.902344 -2.992188 L 7.835938 -3.035156 C 7.625 -2.90625 7.457031 -2.800781 7.3125 -2.675781 C 6.824219 -2.359375 6.867188 -2.402344 6.363281 -2.085938 C 6.066406 -1.875 5.75 -1.683594 5.476562 -1.515625 C 5.183594 -1.304688 4.847656 -1.054688 4.507812 -0.90625 C 4.425781 -0.863281 4.339844 -0.863281 4.277344 -0.84375 C 4.214844 -0.820312 4.171875 -0.820312 4.128906 -0.84375 C 4.023438 -0.90625 3.960938 -0.988281 3.941406 -1.074219 C 3.8125 -1.371094 3.8125 -1.683594 3.875 -1.980469 C 3.898438 -2.023438 3.898438 -2.066406 3.917969 -2.085938 C 3.980469 -2.253906 3.960938 -2.484375 3.960938 -2.484375 C 3.917969 -2.632812 3.835938 -2.738281 3.707031 -2.78125 C 3.457031 -2.800781 3.308594 -2.632812 3.140625 -2.613281 C 3.246094 -2.824219 3.414062 -3.011719 3.351562 -3.308594 C 3.265625 -3.792969 2.761719 -3.875 2.316406 -3.960938 C 1.917969 -3.917969 1.558594 -3.664062 1.304688 -3.390625 C 1.054688 -3.074219 0.78125 -2.824219 0.546875 -2.464844 C 0.503906 -2.421875 0.464844 -2.316406 0.378906 -2.210938 L 0.230469 -1.960938 C 0.191406 -1.8125 0.125 -1.707031 0.105469 -1.582031 C 0.105469 -1.558594 0.105469 -1.558594 0.0859375 -1.539062 C 0.0429688 -1.410156 0 -1.304688 -0.0625 -1.160156 C -0.148438 -0.84375 -0.0859375 -0.570312 0.105469 -0.316406 C 0.230469 -0.253906 0.398438 -0.148438 0.441406 -0.105469 C 0.503906 -0.0859375 0.570312 -0.0859375 0.609375 -0.0859375 C 0.925781 0.0429688 1.285156 0.0429688 1.621094 -0.125 C 1.960938 -0.273438 2.296875 -0.546875 2.550781 -0.738281 C 2.589844 -0.757812 2.613281 -0.820312 2.65625 -0.863281 C 2.800781 -0.863281 2.800781 -1.074219 2.949219 -1.160156 C 2.96875 -1.117188 2.96875 -1.074219 3.011719 -1.054688 C 3.074219 -0.949219 3.054688 -0.90625 3.179688 -0.78125 C 3.265625 -0.589844 3.414062 -0.503906 3.539062 -0.335938 C 3.601562 -0.316406 3.644531 -0.230469 3.707031 -0.210938 C 3.75 -0.167969 3.875 -0.167969 3.917969 -0.148438 C 4.003906 -0.125 4.191406 -0.167969 4.277344 -0.167969 C 4.339844 -0.167969 4.445312 -0.210938 4.464844 -0.210938 C 4.53125 -0.210938 4.636719 -0.253906 4.675781 -0.273438 C 4.78125 -0.335938 4.847656 -0.316406 4.972656 -0.378906 C 5.183594 -0.527344 5.371094 -0.570312 5.539062 -0.757812 L 6.046875 -1.136719 L 6.363281 -1.410156 C 6.425781 -1.433594 6.574219 -1.601562 6.59375 -1.621094 C 6.699219 -1.664062 6.785156 -1.769531 6.847656 -1.832031 C 6.910156 -1.875 7.058594 -1.9375 7.164062 -2.023438 C 7.4375 -2.210938 7.773438 -2.484375 7.984375 -2.800781 Z M 2.84375 -2.210938 C 2.527344 -1.875 2.378906 -1.621094 2.066406 -1.285156 C 1.855469 -1.054688 1.664062 -0.90625 1.390625 -0.800781 C 1.179688 -0.714844 0.800781 -0.695312 0.570312 -0.695312 C 0.675781 -1.117188 0.863281 -1.476562 1.054688 -1.8125 C 1.285156 -2.210938 2.023438 -3.203125 2.65625 -3.308594 C 2.632812 -3.285156 2.464844 -2.359375 2.929688 -2.316406 L 2.949219 -2.316406 C 2.949219 -2.316406 2.867188 -2.210938 2.84375 -2.210938 Z M 2.84375 -2.210938 "/></g></g></g><g fill="#000000" fill-opacity="1"><g transform="translate(57.627734, 25.112833)"><g><path d="M 11.144531 4.234375 C 11.609375 4.085938 11.925781 3.8125 12.21875 3.457031 C 12.261719 3.414062 12.324219 3.308594 12.28125 3.203125 C 12.136719 3.351562 12.050781 3.433594 11.925781 3.519531 C 11.566406 3.792969 11.230469 3.835938 10.722656 3.8125 C 9.816406 3.664062 9.082031 3.285156 8.492188 2.570312 C 8.046875 1.960938 7.648438 1.265625 7.332031 0.570312 C 7.3125 0.503906 7.269531 0.398438 7.246094 0.316406 C 7.269531 0.316406 7.269531 0.316406 7.269531 0.296875 C 7.183594 0.125 7.101562 -0.0625 6.996094 -0.230469 C 6.929688 -0.359375 6.890625 -0.421875 6.953125 -0.527344 C 6.847656 -0.652344 6.785156 -0.757812 6.761719 -0.863281 C 6.804688 -1.136719 6.636719 -1.371094 6.53125 -1.621094 C 7.121094 -1.8125 7.667969 -2.085938 8.175781 -2.316406 C 8.703125 -2.550781 9.121094 -2.84375 9.585938 -3.246094 C 10.027344 -3.625 10.492188 -4.085938 10.765625 -4.65625 C 10.914062 -4.949219 11.0625 -5.246094 11.144531 -5.5625 C 11.292969 -6.234375 11.292969 -6.804688 11.101562 -7.417969 C 10.976562 -7.796875 10.851562 -8.089844 10.640625 -8.34375 C 10.238281 -8.871094 9.753906 -9.1875 9.25 -9.460938 C 8.890625 -9.628906 8.511719 -9.691406 8.132812 -9.691406 C 7.585938 -9.691406 7.035156 -9.691406 6.488281 -9.605469 C 5.792969 -9.523438 5.140625 -9.3125 4.53125 -8.976562 C 3.941406 -8.660156 3.390625 -8.28125 2.867188 -7.859375 C 2.402344 -7.480469 1.9375 -7.035156 1.515625 -6.550781 C 1.390625 -6.363281 1.265625 -6.195312 1.179688 -5.984375 C 1.117188 -5.816406 1.03125 -5.582031 1.074219 -5.414062 C 1.117188 -5.097656 1.265625 -4.886719 1.347656 -4.613281 C 1.410156 -4.550781 1.601562 -4.488281 1.644531 -4.550781 C 1.855469 -4.71875 1.980469 -4.867188 1.917969 -5.078125 C 1.894531 -5.457031 2 -5.710938 2.171875 -5.984375 C 2.359375 -6.257812 2.527344 -6.46875 2.71875 -6.722656 C 3.097656 -7.246094 3.582031 -7.585938 4.066406 -7.964844 C 4.109375 -7.984375 4.171875 -7.984375 4.191406 -8.007812 C 4.675781 -8.214844 5.097656 -8.554688 5.5625 -8.703125 C 5.625 -8.703125 5.644531 -8.742188 5.710938 -8.785156 C 5.855469 -8.804688 5.941406 -8.890625 6.109375 -8.910156 C 6.46875 -9.082031 6.867188 -9.101562 7.289062 -9.121094 C 7.605469 -9.207031 7.941406 -9.226562 8.257812 -9.226562 C 8.871094 -9.226562 9.417969 -9.101562 9.859375 -8.660156 C 10.28125 -8.257812 10.535156 -7.816406 10.660156 -7.269531 C 10.808594 -6.363281 10.578125 -5.582031 10.113281 -4.867188 C 9.964844 -4.550781 9.648438 -4.296875 9.480469 -3.960938 C 9.480469 -3.941406 9.460938 -3.898438 9.4375 -3.898438 C 9.25 -3.875 9.1875 -3.664062 9.082031 -3.539062 C 8.976562 -3.433594 8.890625 -3.328125 8.742188 -3.246094 C 8.492188 -3.097656 8.257812 -2.886719 8.046875 -2.71875 C 7.941406 -2.675781 7.796875 -2.570312 7.691406 -2.527344 C 7.605469 -2.464844 7.519531 -2.445312 7.457031 -2.402344 C 7.164062 -2.128906 6.785156 -1.960938 6.363281 -1.855469 C 6.277344 -1.9375 6.152344 -1.960938 6.027344 -1.980469 C 5.816406 -2.042969 5.582031 -1.917969 5.457031 -1.726562 C 5.414062 -1.644531 5.371094 -1.558594 5.371094 -1.453125 C 5.351562 -1.390625 5.351562 -1.304688 5.351562 -1.265625 C 5.605469 -0.589844 5.878906 0.105469 6.277344 0.738281 C 6.300781 0.757812 6.320312 0.863281 6.320312 0.949219 C 6.511719 1.285156 6.65625 1.621094 6.847656 1.9375 C 7.246094 2.589844 7.667969 3.160156 8.257812 3.625 C 9.121094 4.234375 10.089844 4.507812 11.144531 4.234375 Z M 3.390625 3.203125 C 2.96875 2.613281 2.96875 1.980469 3.140625 1.304688 C 3.265625 0.863281 3.351562 0.378906 3.457031 0 C 3.496094 -0.253906 3.539062 -0.441406 3.644531 -0.632812 C 3.792969 -1.054688 3.941406 -1.390625 4.109375 -1.769531 C 4.550781 -2.675781 4.992188 -3.582031 5.371094 -4.464844 C 5.667969 -5.035156 5.921875 -5.539062 6.171875 -6.132812 C 6.300781 -6.320312 6.363281 -6.550781 6.46875 -6.742188 C 6.53125 -6.867188 6.53125 -7.035156 6.550781 -7.183594 C 6.550781 -7.417969 6.339844 -7.648438 6.132812 -7.648438 C 5.710938 -7.667969 5.289062 -7.625 4.929688 -7.480469 C 4.804688 -7.140625 4.910156 -6.910156 4.992188 -6.699219 C 4.929688 -6.445312 4.929688 -6.339844 4.824219 -6.171875 C 4.613281 -5.539062 4.359375 -4.972656 4.152344 -4.382812 C 4.023438 -4.109375 3.960938 -3.898438 3.835938 -3.6875 C 3.707031 -3.496094 3.582031 -3.371094 3.6875 -3.074219 C 3.625 -2.78125 3.519531 -2.550781 3.328125 -2.273438 C 3.328125 -2.023438 3.140625 -1.726562 3.011719 -1.476562 L 3.011719 -1.496094 C 2.949219 -1.074219 2.761719 -0.695312 2.613281 -0.335938 C 2.570312 -0.230469 2.550781 -0.191406 2.570312 -0.105469 C 2.570312 0.191406 2.507812 0.464844 2.339844 0.695312 L 2.128906 1.515625 C 2.148438 1.644531 2.171875 1.75 2.171875 1.832031 C 2.171875 2.191406 2.316406 2.550781 2.445312 2.886719 C 2.84375 3.730469 3.457031 3.390625 3.390625 3.203125 Z M 3.390625 3.203125 "/></g></g></g><g fill="#000000" fill-opacity="1"><g transform="translate(68.724305, 25.112833)"><g><path d="M 5.539062 -2.066406 C 5.605469 -2.105469 5.644531 -2.171875 5.710938 -2.210938 C 5.710938 -2.234375 5.6875 -2.234375 5.6875 -2.234375 L 5.644531 -2.378906 L 4.929688 -1.855469 C 4.886719 -1.8125 4.761719 -1.75 4.675781 -1.707031 C 4.464844 -1.582031 4.066406 -1.347656 3.875 -1.222656 L 3.8125 -1.179688 L 3.117188 -0.78125 C 3.011719 -0.714844 2.90625 -0.714844 2.800781 -0.675781 C 2.632812 -0.609375 2.464844 -0.527344 2.316406 -0.464844 C 2.128906 -0.398438 1.9375 -0.316406 1.75 -0.296875 C 1.476562 -0.253906 1.199219 -0.273438 0.925781 -0.253906 C 0.757812 -0.316406 0.714844 -0.359375 0.632812 -0.609375 C 0.78125 -0.695312 0.84375 -0.714844 1.011719 -0.800781 C 1.054688 -0.84375 1.09375 -0.90625 1.160156 -0.925781 C 1.285156 -1.011719 1.453125 -1.074219 1.601562 -1.160156 C 1.621094 -1.179688 1.621094 -1.242188 1.644531 -1.265625 L 1.9375 -1.476562 C 2.023438 -1.515625 2.171875 -1.539062 2.191406 -1.683594 C 2.210938 -1.75 2.339844 -1.769531 2.402344 -1.832031 C 2.589844 -2.023438 2.78125 -2.210938 2.96875 -2.421875 C 3.035156 -2.484375 3.097656 -2.589844 3.140625 -2.695312 C 3.203125 -2.867188 3.097656 -3.222656 2.929688 -3.328125 C 2.78125 -3.457031 2.613281 -3.582031 2.421875 -3.664062 C 2.273438 -3.75 2.085938 -3.898438 1.875 -3.8125 C 1.789062 -3.792969 1.726562 -3.769531 1.664062 -3.769531 C 1.390625 -3.75 1.160156 -3.625 0.96875 -3.433594 C 0.78125 -3.222656 0.589844 -3.011719 0.398438 -2.78125 C 0.296875 -2.65625 0.210938 -2.527344 0.125 -2.402344 C -0.0859375 -2 -0.191406 -1.601562 -0.210938 -1.179688 C -0.210938 -1.03125 -0.230469 -0.886719 -0.125 -0.632812 C -0.0859375 -0.421875 -0.0859375 -0.421875 -0.0429688 -0.378906 C 0.0859375 -0.191406 0.167969 -0.0625 0.316406 0.0429688 C 0.335938 0.0625 0.398438 0.0859375 0.421875 0.125 C 0.632812 0.296875 0.714844 0.316406 0.90625 0.378906 C 1.09375 0.441406 1.328125 0.484375 1.539062 0.503906 C 1.707031 0.527344 1.855469 0.484375 2.023438 0.441406 C 2.128906 0.421875 2.253906 0.398438 2.339844 0.359375 C 2.402344 0.316406 2.445312 0.296875 2.527344 0.296875 C 2.675781 0.273438 2.824219 0.273438 2.949219 0.210938 C 3.160156 0.125 3.328125 -0.0195312 3.519531 -0.125 C 3.664062 -0.230469 3.792969 -0.316406 3.960938 -0.398438 L 4.359375 -0.714844 C 4.445312 -0.78125 4.550781 -0.863281 4.636719 -0.949219 C 4.65625 -0.96875 4.742188 -1.054688 4.761719 -1.117188 L 4.761719 -1.136719 C 4.78125 -1.285156 4.867188 -1.328125 4.949219 -1.390625 C 4.886719 -1.453125 4.929688 -1.496094 5.015625 -1.539062 L 5.078125 -1.621094 C 5.183594 -1.683594 5.183594 -1.75 5.226562 -1.789062 Z M 0.757812 -1.894531 C 0.886719 -2.148438 1.03125 -2.402344 1.199219 -2.632812 C 1.347656 -2.824219 1.539062 -2.929688 1.726562 -3.074219 C 1.894531 -3.203125 2.085938 -3.203125 2.273438 -3.285156 C 2.359375 -3.328125 2.464844 -3.140625 2.402344 -3.035156 C 2.316406 -2.886719 2.234375 -2.761719 2.105469 -2.65625 L 1.539062 -2.148438 L 0.96875 -1.683594 C 0.886719 -1.621094 0.78125 -1.558594 0.609375 -1.453125 C 0.652344 -1.621094 0.695312 -1.769531 0.757812 -1.894531 Z M 0.757812 -1.894531 "/></g></g></g><g fill="#000000" fill-opacity="1"><g transform="translate(73.398443, 25.112833)"><g><path d="M 0.632812 0.96875 C 0.800781 1.011719 0.886719 0.988281 0.96875 0.820312 C 0.988281 0.800781 0.988281 0.78125 1.03125 0.757812 L 1.09375 0.609375 C 1.199219 0.609375 1.285156 0.546875 1.371094 0.441406 C 1.476562 0.210938 1.875 -0.570312 1.894531 -0.570312 L 2 -0.714844 C 1.960938 -0.714844 2.085938 -0.820312 2.105469 -0.886719 C 2.171875 -0.988281 2.316406 -1.011719 2.296875 -1.179688 C 2.445312 -1.242188 2.550781 -1.347656 2.589844 -1.515625 C 2.738281 -1.539062 2.824219 -1.601562 2.886719 -1.832031 C 2.90625 -1.769531 2.949219 -1.75 2.992188 -1.707031 C 2.992188 -1.582031 2.96875 -1.433594 2.96875 -1.328125 C 2.929688 -0.886719 3.011719 -0.484375 3.117188 -0.125 C 3.203125 0.148438 3.371094 0.335938 3.5625 0.484375 C 3.664062 0.609375 3.730469 0.609375 3.875 0.675781 L 3.898438 0.675781 C 4.214844 0.609375 4.570312 0.609375 4.867188 0.398438 C 5.054688 0.273438 5.246094 0.125 5.371094 -0.0195312 C 5.519531 -0.167969 5.6875 -0.296875 5.773438 -0.464844 C 5.773438 -0.484375 5.835938 -0.484375 5.855469 -0.503906 C 5.835938 -0.527344 5.835938 -0.570312 5.835938 -0.570312 C 5.941406 -0.632812 5.941406 -0.695312 5.960938 -0.738281 L 6.320312 -1.160156 C 6.40625 -1.222656 6.488281 -1.328125 6.53125 -1.410156 C 6.574219 -1.496094 6.574219 -1.582031 6.617188 -1.683594 L 6.804688 -1.980469 C 6.910156 -2.105469 6.824219 -2.191406 6.699219 -2.191406 L 4.742188 -0.316406 C 4.636719 -0.230469 4.507812 -0.167969 4.382812 -0.125 C 4.023438 0.0625 3.960938 0.0859375 3.941406 0.105469 L 3.875 0.105469 C 3.855469 0.0859375 3.792969 0.0195312 3.792969 -0.0195312 L 3.730469 -0.230469 C 3.730469 -0.378906 3.730469 -0.546875 3.707031 -0.695312 C 3.730469 -0.757812 3.707031 -0.820312 3.707031 -0.863281 C 3.730469 -1.03125 3.75 -1.199219 3.75 -1.371094 C 3.730469 -1.558594 3.6875 -1.75 3.625 -1.9375 C 3.625 -2 3.644531 -2.066406 3.625 -2.066406 C 3.539062 -2.105469 3.5625 -2.210938 3.539062 -2.316406 C 3.203125 -2.484375 3.160156 -2.527344 3.097656 -2.527344 C 3.035156 -2.550781 2.992188 -2.570312 2.824219 -2.570312 C 2.613281 -2.550781 2.589844 -2.550781 2.484375 -2.484375 C 2.316406 -2.359375 2.171875 -2.210938 2.042969 -2.066406 C 1.789062 -1.8125 1.558594 -1.515625 1.347656 -1.199219 C 1.347656 -1.179688 1.347656 -1.199219 1.328125 -1.179688 C 1.347656 -1.222656 1.347656 -1.242188 1.347656 -1.265625 C 1.390625 -1.410156 1.453125 -1.539062 1.496094 -1.683594 C 1.539062 -1.832031 1.539062 -1.9375 1.558594 -2.085938 C 1.582031 -2.253906 1.601562 -2.402344 1.644531 -2.570312 C 1.644531 -2.589844 1.644531 -2.589844 1.621094 -2.613281 C 1.476562 -2.824219 1.285156 -3.011719 1.011719 -3.035156 C 0.886719 -3.054688 0.84375 -3.011719 0.820312 -2.867188 C 0.800781 -2.738281 0.78125 -2.613281 0.84375 -2.550781 C 0.863281 -2.550781 0.863281 -2.507812 0.863281 -2.484375 C 0.820312 -2.234375 0.800781 -2 0.738281 -1.75 C 0.652344 -1.371094 0.527344 -0.988281 0.421875 -0.632812 C 0.335938 -0.253906 0.296875 0.0859375 0.230469 0.441406 C 0.191406 0.609375 0.503906 0.925781 0.632812 0.96875 Z M 0.632812 0.96875 "/></g></g></g><g fill="#000000" fill-opacity="1"><g transform="translate(78.219981, 25.112833)"><g><path d="M 7.984375 -2.800781 L 7.902344 -2.992188 L 7.835938 -3.035156 C 7.625 -2.90625 7.457031 -2.800781 7.3125 -2.675781 C 6.824219 -2.359375 6.867188 -2.402344 6.363281 -2.085938 C 6.066406 -1.875 5.75 -1.683594 5.476562 -1.515625 C 5.183594 -1.304688 4.847656 -1.054688 4.507812 -0.90625 C 4.425781 -0.863281 4.339844 -0.863281 4.277344 -0.84375 C 4.214844 -0.820312 4.171875 -0.820312 4.128906 -0.84375 C 4.023438 -0.90625 3.960938 -0.988281 3.941406 -1.074219 C 3.8125 -1.371094 3.8125 -1.683594 3.875 -1.980469 C 3.898438 -2.023438 3.898438 -2.066406 3.917969 -2.085938 C 3.980469 -2.253906 3.960938 -2.484375 3.960938 -2.484375 C 3.917969 -2.632812 3.835938 -2.738281 3.707031 -2.78125 C 3.457031 -2.800781 3.308594 -2.632812 3.140625 -2.613281 C 3.246094 -2.824219 3.414062 -3.011719 3.351562 -3.308594 C 3.265625 -3.792969 2.761719 -3.875 2.316406 -3.960938 C 1.917969 -3.917969 1.558594 -3.664062 1.304688 -3.390625 C 1.054688 -3.074219 0.78125 -2.824219 0.546875 -2.464844 C 0.503906 -2.421875 0.464844 -2.316406 0.378906 -2.210938 L 0.230469 -1.960938 C 0.191406 -1.8125 0.125 -1.707031 0.105469 -1.582031 C 0.105469 -1.558594 0.105469 -1.558594 0.0859375 -1.539062 C 0.0429688 -1.410156 0 -1.304688 -0.0625 -1.160156 C -0.148438 -0.84375 -0.0859375 -0.570312 0.105469 -0.316406 C 0.230469 -0.253906 0.398438 -0.148438 0.441406 -0.105469 C 0.503906 -0.0859375 0.570312 -0.0859375 0.609375 -0.0859375 C 0.925781 0.0429688 1.285156 0.0429688 1.621094 -0.125 C 1.960938 -0.273438 2.296875 -0.546875 2.550781 -0.738281 C 2.589844 -0.757812 2.613281 -0.820312 2.65625 -0.863281 C 2.800781 -0.863281 2.800781 -1.074219 2.949219 -1.160156 C 2.96875 -1.117188 2.96875 -1.074219 3.011719 -1.054688 C 3.074219 -0.949219 3.054688 -0.90625 3.179688 -0.78125 C 3.265625 -0.589844 3.414062 -0.503906 3.539062 -0.335938 C 3.601562 -0.316406 3.644531 -0.230469 3.707031 -0.210938 C 3.75 -0.167969 3.875 -0.167969 3.917969 -0.148438 C 4.003906 -0.125 4.191406 -0.167969 4.277344 -0.167969 C 4.339844 -0.167969 4.445312 -0.210938 4.464844 -0.210938 C 4.53125 -0.210938 4.636719 -0.253906 4.675781 -0.273438 C 4.78125 -0.335938 4.847656 -0.316406 4.972656 -0.378906 C 5.183594 -0.527344 5.371094 -0.570312 5.539062 -0.757812 L 6.046875 -1.136719 L 6.363281 -1.410156 C 6.425781 -1.433594 6.574219 -1.601562 6.59375 -1.621094 C 6.699219 -1.664062 6.785156 -1.769531 6.847656 -1.832031 C 6.910156 -1.875 7.058594 -1.9375 7.164062 -2.023438 C 7.4375 -2.210938 7.773438 -2.484375 7.984375 -2.800781 Z M 2.84375 -2.210938 C 2.527344 -1.875 2.378906 -1.621094 2.066406 -1.285156 C 1.855469 -1.054688 1.664062 -0.90625 1.390625 -0.800781 C 1.179688 -0.714844 0.800781 -0.695312 0.570312 -0.695312 C 0.675781 -1.117188 0.863281 -1.476562 1.054688 -1.8125 C 1.285156 -2.210938 2.023438 -3.203125 2.65625 -3.308594 C 2.632812 -3.285156 2.464844 -2.359375 2.929688 -2.316406 L 2.949219 -2.316406 C 2.949219 -2.316406 2.867188 -2.210938 2.84375 -2.210938 Z M 2.84375 -2.210938 "/></g></g></g><g fill="#000000" fill-opacity="1"><g transform="translate(84.410229, 25.112833)"><g><path d="M 4.425781 -6.953125 C 4.550781 -6.972656 4.824219 -7.015625 4.910156 -6.953125 C 5.054688 -7.015625 5.265625 -7.015625 5.394531 -7.015625 L 5.4375 -7.035156 C 5.519531 -7.164062 5.835938 -7.183594 5.773438 -7.394531 C 5.710938 -7.4375 5.605469 -7.351562 5.5625 -7.332031 C 5.121094 -7.246094 4.992188 -7.269531 3.980469 -7.3125 C 3.898438 -7.289062 3.730469 -7.351562 3.433594 -7.375 C 3.476562 -7.605469 3.539062 -7.710938 3.6875 -8.132812 C 3.792969 -8.40625 3.960938 -8.679688 4.023438 -8.933594 C 4.234375 -9.292969 4.402344 -9.671875 4.570312 -10.070312 C 4.636719 -10.21875 4.699219 -10.324219 4.53125 -10.429688 C 4.488281 -10.492188 4.402344 -10.535156 4.382812 -10.597656 C 4.359375 -10.765625 4.171875 -10.808594 4.003906 -10.914062 C 3.960938 -10.933594 3.917969 -10.933594 3.898438 -10.976562 C 3.8125 -10.996094 3.75 -10.976562 3.707031 -10.851562 C 3.664062 -10.703125 3.582031 -10.492188 3.539062 -10.34375 C 3.476562 -10.238281 3.414062 -10.195312 3.414062 -10.113281 C 3.285156 -9.859375 3.246094 -9.628906 3.140625 -9.398438 C 3.074219 -9.144531 2.949219 -8.910156 2.886719 -8.703125 C 2.800781 -8.492188 2.71875 -8.300781 2.65625 -8.089844 C 2.527344 -7.878906 2.507812 -7.667969 2.378906 -7.457031 C 2.253906 -7.457031 2.105469 -7.457031 1.917969 -7.4375 L 1.515625 -7.480469 C 1.371094 -7.542969 1.222656 -7.5 1.09375 -7.4375 C 1.054688 -7.417969 0.988281 -7.4375 0.96875 -7.4375 C 0.96875 -7.4375 0.886719 -7.457031 0.78125 -7.332031 C 0.675781 -7.289062 0.632812 -7.164062 0.632812 -7.101562 C 0.652344 -6.910156 0.886719 -6.867188 1.136719 -6.804688 C 1.539062 -6.761719 1.832031 -6.742188 2.105469 -6.742188 L 1.894531 -6.089844 L 1.222656 -3.980469 C 1.242188 -3.960938 1.242188 -3.917969 1.265625 -3.898438 L 1.222656 -3.898438 C 1.179688 -3.792969 1.117188 -3.730469 1.117188 -3.644531 C 1.03125 -3.371094 1.03125 -3.140625 0.949219 -2.90625 L 0.800781 -2.316406 C 0.757812 -2.066406 0.675781 -1.8125 0.695312 -1.558594 C 0.652344 -1.117188 0.589844 -0.695312 0.675781 -0.273438 C 0.757812 0.148438 0.84375 0.570312 1.074219 0.90625 C 1.117188 0.949219 1.160156 0.988281 1.199219 1.054688 C 1.371094 1.242188 1.453125 1.371094 1.644531 1.433594 C 1.9375 1.621094 2 1.601562 2.316406 1.582031 L 2.273438 1.582031 C 2.402344 1.582031 2.445312 1.558594 2.484375 1.496094 C 2.589844 1.328125 2.78125 1.199219 2.71875 0.988281 C 2.71875 0.988281 2.464844 1.117188 2.296875 1.09375 C 2.105469 1.117188 2.085938 1.09375 1.894531 0.988281 L 1.75 0.820312 C 1.707031 0.78125 1.621094 0.695312 1.621094 0.546875 C 1.582031 0.398438 1.539062 0.253906 1.558594 0.105469 C 1.558594 0.0195312 1.558594 -0.0429688 1.476562 -0.0625 C 1.558594 -0.105469 1.496094 -0.125 1.453125 -0.167969 C 1.558594 -0.191406 1.539062 -0.570312 1.453125 -0.675781 C 1.496094 -0.738281 1.539062 -0.820312 1.558594 -0.886719 C 1.515625 -0.90625 1.496094 -0.925781 1.515625 -0.925781 C 1.539062 -0.949219 1.558594 -0.988281 1.558594 -1.03125 C 1.558594 -1.199219 1.582031 -1.347656 1.644531 -1.539062 C 1.621094 -1.601562 1.644531 -1.707031 1.664062 -1.789062 C 1.664062 -1.855469 1.726562 -1.9375 1.726562 -1.980469 C 1.726562 -2.085938 1.789062 -2.210938 1.726562 -2.316406 C 1.769531 -2.378906 1.832031 -2.445312 1.855469 -2.507812 C 1.875 -2.738281 1.960938 -2.96875 2.023438 -3.203125 C 2.023438 -3.328125 2.085938 -3.457031 2.148438 -3.582031 C 2.171875 -3.769531 2.273438 -3.980469 2.316406 -4.191406 C 2.339844 -4.277344 2.378906 -4.359375 2.421875 -4.464844 C 2.464844 -4.59375 2.445312 -4.71875 2.507812 -4.867188 C 2.507812 -4.910156 2.484375 -4.949219 2.507812 -4.949219 C 2.632812 -4.992188 2.613281 -5.078125 2.589844 -5.121094 C 2.570312 -5.160156 2.613281 -5.203125 2.613281 -5.246094 C 2.695312 -5.332031 2.761719 -5.476562 2.738281 -5.5625 C 2.78125 -5.625 2.824219 -5.667969 2.800781 -5.710938 C 2.761719 -5.792969 2.84375 -5.960938 2.929688 -6.003906 L 3.160156 -6.722656 L 3.390625 -6.722656 C 3.582031 -6.742188 3.898438 -6.722656 4.128906 -6.722656 C 4.402344 -6.742188 4.59375 -6.742188 4.699219 -6.742188 C 4.886719 -6.742188 5.078125 -6.761719 5.140625 -6.804688 L 5.457031 -6.847656 C 5.5 -6.867188 5.519531 -6.890625 5.457031 -6.929688 C 5.035156 -6.890625 4.867188 -6.890625 4.046875 -6.867188 L 4.066406 -6.910156 Z M 4.425781 -6.953125 "/></g></g></g><g fill="#000000" fill-opacity="1"><g transform="translate(88.199958, 25.112833)"><g><path d="M 7.984375 -2.800781 L 7.902344 -2.992188 L 7.835938 -3.035156 C 7.625 -2.90625 7.457031 -2.800781 7.3125 -2.675781 C 6.824219 -2.359375 6.867188 -2.402344 6.363281 -2.085938 C 6.066406 -1.875 5.75 -1.683594 5.476562 -1.515625 C 5.183594 -1.304688 4.847656 -1.054688 4.507812 -0.90625 C 4.425781 -0.863281 4.339844 -0.863281 4.277344 -0.84375 C 4.214844 -0.820312 4.171875 -0.820312 4.128906 -0.84375 C 4.023438 -0.90625 3.960938 -0.988281 3.941406 -1.074219 C 3.8125 -1.371094 3.8125 -1.683594 3.875 -1.980469 C 3.898438 -2.023438 3.898438 -2.066406 3.917969 -2.085938 C 3.980469 -2.253906 3.960938 -2.484375 3.960938 -2.484375 C 3.917969 -2.632812 3.835938 -2.738281 3.707031 -2.78125 C 3.457031 -2.800781 3.308594 -2.632812 3.140625 -2.613281 C 3.246094 -2.824219 3.414062 -3.011719 3.351562 -3.308594 C 3.265625 -3.792969 2.761719 -3.875 2.316406 -3.960938 C 1.917969 -3.917969 1.558594 -3.664062 1.304688 -3.390625 C 1.054688 -3.074219 0.78125 -2.824219 0.546875 -2.464844 C 0.503906 -2.421875 0.464844 -2.316406 0.378906 -2.210938 L 0.230469 -1.960938 C 0.191406 -1.8125 0.125 -1.707031 0.105469 -1.582031 C 0.105469 -1.558594 0.105469 -1.558594 0.0859375 -1.539062 C 0.0429688 -1.410156 0 -1.304688 -0.0625 -1.160156 C -0.148438 -0.84375 -0.0859375 -0.570312 0.105469 -0.316406 C 0.230469 -0.253906 0.398438 -0.148438 0.441406 -0.105469 C 0.503906 -0.0859375 0.570312 -0.0859375 0.609375 -0.0859375 C 0.925781 0.0429688 1.285156 0.0429688 1.621094 -0.125 C 1.960938 -0.273438 2.296875 -0.546875 2.550781 -0.738281 C 2.589844 -0.757812 2.613281 -0.820312 2.65625 -0.863281 C 2.800781 -0.863281 2.800781 -1.074219 2.949219 -1.160156 C 2.96875 -1.117188 2.96875 -1.074219 3.011719 -1.054688 C 3.074219 -0.949219 3.054688 -0.90625 3.179688 -0.78125 C 3.265625 -0.589844 3.414062 -0.503906 3.539062 -0.335938 C 3.601562 -0.316406 3.644531 -0.230469 3.707031 -0.210938 C 3.75 -0.167969 3.875 -0.167969 3.917969 -0.148438 C 4.003906 -0.125 4.191406 -0.167969 4.277344 -0.167969 C 4.339844 -0.167969 4.445312 -0.210938 4.464844 -0.210938 C 4.53125 -0.210938 4.636719 -0.253906 4.675781 -0.273438 C 4.78125 -0.335938 4.847656 -0.316406 4.972656 -0.378906 C 5.183594 -0.527344 5.371094 -0.570312 5.539062 -0.757812 L 6.046875 -1.136719 L 6.363281 -1.410156 C 6.425781 -1.433594 6.574219 -1.601562 6.59375 -1.621094 C 6.699219 -1.664062 6.785156 -1.769531 6.847656 -1.832031 C 6.910156 -1.875 7.058594 -1.9375 7.164062 -2.023438 C 7.4375 -2.210938 7.773438 -2.484375 7.984375 -2.800781 Z M 2.84375 -2.210938 C 2.527344 -1.875 2.378906 -1.621094 2.066406 -1.285156 C 1.855469 -1.054688 1.664062 -0.90625 1.390625 -0.800781 C 1.179688 -0.714844 0.800781 -0.695312 0.570312 -0.695312 C 0.675781 -1.117188 0.863281 -1.476562 1.054688 -1.8125 C 1.285156 -2.210938 2.023438 -3.203125 2.65625 -3.308594 C 2.632812 -3.285156 2.464844 -2.359375 2.929688 -2.316406 L 2.949219 -2.316406 C 2.949219 -2.316406 2.867188 -2.210938 2.84375 -2.210938 Z M 2.84375 -2.210938 "/></g></g></g><g fill="#fb7185" fill-opacity="1"><g transform="translate(94.385132, 25.112833)"><g><path d="M 4.53125 3.222656 C 5.203125 3.433594 5.984375 3.285156 6.65625 3.140625 C 6.65625 3.140625 6.679688 3.097656 6.722656 3.054688 C 6.847656 2.90625 7.078125 2.90625 7.351562 2.867188 C 7.667969 2.824219 7.984375 2.675781 8.132812 2.445312 C 8.238281 2.253906 8.46875 2.105469 8.660156 1.917969 C 8.804688 1.832031 8.996094 1.75 9.144531 1.621094 C 9.164062 1.601562 9.164062 1.515625 9.1875 1.410156 L 9.753906 0.714844 C 9.945312 0.546875 10.21875 0.316406 10.40625 0.0859375 C 10.851562 -0.441406 11.1875 -0.96875 11.417969 -1.371094 C 11.757812 -1.9375 10.40625 -2.105469 9.480469 -2.085938 C 8.109375 -2.042969 7.796875 -2 6.636719 -1.789062 C 5.835938 -1.644531 5.792969 -1.179688 6.046875 -0.96875 C 7.835938 -1.539062 10.238281 -1.371094 10.386719 -1.199219 C 10.195312 -0.714844 9.648438 -0.148438 9.164062 0.335938 C 7.351562 2.148438 6.550781 2.570312 4.59375 2.507812 C 3.941406 2.484375 3.160156 2.105469 2.761719 1.683594 C 2.445312 1.347656 2.253906 0.820312 2.210938 0.398438 C 2.171875 -0.0195312 2.148438 -0.464844 2.171875 -0.90625 C 2.210938 -1.644531 2.570312 -2.359375 2.71875 -3.074219 C 2.675781 -3.203125 2.867188 -3.265625 2.90625 -3.390625 C 3.011719 -3.8125 3.457031 -4.234375 3.519531 -4.71875 C 3.582031 -4.761719 3.582031 -4.824219 3.601562 -4.847656 C 4.023438 -5.226562 4.214844 -5.6875 4.53125 -6.109375 C 5.203125 -6.972656 6.804688 -9.121094 8.363281 -9.121094 C 9.1875 -9.121094 9.5 -8.679688 9.648438 -8.449219 C 10.175781 -7.5625 9.964844 -6.679688 9.671875 -5.816406 C 9.671875 -5.539062 10.15625 -5.371094 10.34375 -5.332031 C 10.640625 -5.265625 10.871094 -5.519531 10.957031 -6.109375 C 11.082031 -6.867188 11.082031 -7.375 10.683594 -8.28125 C 10.34375 -9.039062 9.734375 -9.542969 8.742188 -9.777344 C 7.585938 -10.070312 6.574219 -9.628906 5.75 -8.933594 C 4.824219 -8.175781 4.171875 -7.457031 3.476562 -6.53125 C 3.160156 -6.132812 2.90625 -5.667969 2.65625 -5.265625 C 2.402344 -4.867188 2.171875 -4.464844 2.023438 -4.046875 C 1.621094 -3.246094 1.328125 -2.402344 1.222656 -1.496094 C 1.136719 -1.328125 1.09375 -1.09375 1.199219 -0.863281 L 1.054688 -0.464844 C 1.074219 1.054688 2 1.832031 2.253906 2.105469 C 2.359375 2.210938 2.507812 2.296875 2.632812 2.402344 C 3.203125 2.78125 3.917969 2.992188 4.53125 3.222656 Z M 4.53125 3.222656 "/></g></g></g><g fill="#fb7185" fill-opacity="1"><g transform="translate(106.281876, 25.112833)"><g><path d="M 5.984375 -2.886719 C 5.457031 -2.695312 5.203125 -2.632812 4.886719 -2.507812 C 4.53125 -2.378906 4.152344 -2.273438 3.769531 -2.128906 C 3.75 -2.148438 3.769531 -2.171875 3.769531 -2.191406 L 3.625 -2.65625 C 3.519531 -2.867188 3.433594 -2.992188 3.308594 -3.097656 C 3.265625 -3.117188 3.179688 -3.117188 3.160156 -3.140625 C 2.90625 -3.351562 2.613281 -3.351562 2.402344 -3.433594 C 2.359375 -3.457031 2.316406 -3.457031 2.296875 -3.476562 C 2.210938 -3.5625 2.171875 -3.664062 2.066406 -3.664062 C 1.894531 -3.664062 1.683594 -3.6875 1.496094 -3.601562 C 1.242188 -3.476562 1.03125 -3.308594 0.84375 -3.117188 C 0.714844 -2.992188 0.632812 -2.738281 0.484375 -2.527344 C 0.464844 -2.527344 0.421875 -2.253906 0.378906 -2.128906 C 0.273438 -1.75 0.0859375 -1.347656 0.105469 -0.949219 C 0.125 -0.609375 0.148438 -0.210938 0.378906 0.0195312 C 0.527344 0.210938 0.695312 0.359375 0.949219 0.398438 C 1.117188 0.484375 1.371094 0.484375 1.582031 0.503906 C 1.621094 0.527344 1.707031 0.527344 1.789062 0.503906 C 1.980469 0.441406 2.128906 0.398438 2.296875 0.296875 C 2.378906 0.296875 2.464844 0.253906 2.527344 0.210938 C 2.613281 0.105469 2.738281 0 2.84375 -0.105469 L 2.886719 -0.148438 C 3.074219 -0.359375 3.179688 -0.570312 3.351562 -0.757812 C 3.371094 -0.78125 3.351562 -0.863281 3.371094 -0.886719 C 3.496094 -0.96875 3.496094 -1.09375 3.601562 -1.199219 C 3.601562 -1.199219 3.601562 -1.222656 3.601562 -1.222656 L 3.5625 -1.242188 C 3.5625 -1.328125 3.601562 -1.390625 3.625 -1.453125 C 3.625 -1.539062 3.644531 -1.582031 3.75 -1.582031 C 3.792969 -1.582031 3.835938 -1.601562 3.898438 -1.601562 C 4.109375 -1.621094 4.277344 -1.644531 4.507812 -1.75 L 4.804688 -1.875 C 4.910156 -1.917969 5.078125 -1.917969 5.097656 -2.042969 C 5.097656 -2.066406 5.121094 -2.066406 5.140625 -2.066406 L 5.289062 -2.066406 C 5.371094 -2.066406 5.371094 -2.148438 5.457031 -2.210938 C 5.582031 -2.296875 5.75 -2.421875 6.003906 -2.675781 L 6.003906 -2.867188 Z M 2.992188 -2.042969 L 2.402344 -2.042969 C 2.273438 -2.042969 2.210938 -2.066406 2.171875 -2.171875 C 2.105469 -2.273438 2.085938 -2.402344 2.085938 -2.507812 C 2.105469 -2.695312 2.253906 -2.78125 2.378906 -2.886719 C 2.445312 -2.949219 2.550781 -2.992188 2.675781 -2.992188 C 2.738281 -3.011719 2.78125 -3.011719 2.824219 -2.949219 C 2.929688 -2.78125 2.949219 -2.570312 2.992188 -2.402344 C 2.992188 -2.273438 2.96875 -2.148438 2.992188 -2.042969 Z M 2.800781 -1.410156 C 2.695312 -1.265625 2.65625 -1.09375 2.570312 -0.96875 C 2.464844 -0.800781 2.339844 -0.652344 2.210938 -0.527344 C 1.980469 -0.296875 1.683594 -0.0859375 1.371094 0 C 1.09375 0.105469 0.84375 0.0195312 0.820312 -0.148438 C 0.800781 -0.273438 0.757812 -0.378906 0.757812 -0.527344 C 0.757812 -0.738281 0.757812 -0.988281 0.84375 -1.199219 C 0.863281 -1.304688 0.863281 -1.410156 0.90625 -1.539062 C 0.925781 -1.621094 0.96875 -1.75 1.03125 -1.832031 C 1.136719 -2.042969 1.242188 -2.210938 1.347656 -2.464844 C 1.371094 -2.378906 1.410156 -2.296875 1.453125 -2.234375 C 1.496094 -2.105469 1.601562 -2 1.75 -1.917969 C 1.917969 -1.789062 2.148438 -1.683594 2.359375 -1.644531 C 2.464844 -1.601562 2.632812 -1.582031 2.738281 -1.582031 C 2.84375 -1.539062 2.886719 -1.515625 2.800781 -1.410156 Z M 2.800781 -1.410156 "/></g></g></g><g fill="#fb7185" fill-opacity="1"><g transform="translate(110.59804, 25.112833)"><g><path d="M 0.632812 0.96875 C 0.800781 1.011719 0.886719 0.988281 0.96875 0.820312 C 0.988281 0.800781 0.988281 0.78125 1.03125 0.757812 L 1.09375 0.609375 C 1.199219 0.609375 1.285156 0.546875 1.371094 0.441406 C 1.476562 0.210938 1.875 -0.570312 1.894531 -0.570312 L 2 -0.714844 C 1.960938 -0.714844 2.085938 -0.820312 2.105469 -0.886719 C 2.171875 -0.988281 2.316406 -1.011719 2.296875 -1.179688 C 2.445312 -1.242188 2.550781 -1.347656 2.589844 -1.515625 C 2.738281 -1.539062 2.824219 -1.601562 2.886719 -1.832031 C 2.90625 -1.769531 2.949219 -1.75 2.992188 -1.707031 C 2.992188 -1.582031 2.96875 -1.433594 2.96875 -1.328125 C 2.929688 -0.886719 3.011719 -0.484375 3.117188 -0.125 C 3.203125 0.148438 3.371094 0.335938 3.5625 0.484375 C 3.664062 0.609375 3.730469 0.609375 3.875 0.675781 L 3.898438 0.675781 C 4.214844 0.609375 4.570312 0.609375 4.867188 0.398438 C 5.054688 0.273438 5.246094 0.125 5.371094 -0.0195312 C 5.519531 -0.167969 5.6875 -0.296875 5.773438 -0.464844 C 5.773438 -0.484375 5.835938 -0.484375 5.855469 -0.503906 C 5.835938 -0.527344 5.835938 -0.570312 5.835938 -0.570312 C 5.941406 -0.632812 5.941406 -0.695312 5.960938 -0.738281 L 6.320312 -1.160156 C 6.40625 -1.222656 6.488281 -1.328125 6.53125 -1.410156 C 6.574219 -1.496094 6.574219 -1.582031 6.617188 -1.683594 L 6.804688 -1.980469 C 6.910156 -2.105469 6.824219 -2.191406 6.699219 -2.191406 L 4.742188 -0.316406 C 4.636719 -0.230469 4.507812 -0.167969 4.382812 -0.125 C 4.023438 0.0625 3.960938 0.0859375 3.941406 0.105469 L 3.875 0.105469 C 3.855469 0.0859375 3.792969 0.0195312 3.792969 -0.0195312 L 3.730469 -0.230469 C 3.730469 -0.378906 3.730469 -0.546875 3.707031 -0.695312 C 3.730469 -0.757812 3.707031 -0.820312 3.707031 -0.863281 C 3.730469 -1.03125 3.75 -1.199219 3.75 -1.371094 C 3.730469 -1.558594 3.6875 -1.75 3.625 -1.9375 C 3.625 -2 3.644531 -2.066406 3.625 -2.066406 C 3.539062 -2.105469 3.5625 -2.210938 3.539062 -2.316406 C 3.203125 -2.484375 3.160156 -2.527344 3.097656 -2.527344 C 3.035156 -2.550781 2.992188 -2.570312 2.824219 -2.570312 C 2.613281 -2.550781 2.589844 -2.550781 2.484375 -2.484375 C 2.316406 -2.359375 2.171875 -2.210938 2.042969 -2.066406 C 1.789062 -1.8125 1.558594 -1.515625 1.347656 -1.199219 C 1.347656 -1.179688 1.347656 -1.199219 1.328125 -1.179688 C 1.347656 -1.222656 1.347656 -1.242188 1.347656 -1.265625 C 1.390625 -1.410156 1.453125 -1.539062 1.496094 -1.683594 C 1.539062 -1.832031 1.539062 -1.9375 1.558594 -2.085938 C 1.582031 -2.253906 1.601562 -2.402344 1.644531 -2.570312 C 1.644531 -2.589844 1.644531 -2.589844 1.621094 -2.613281 C 1.476562 -2.824219 1.285156 -3.011719 1.011719 -3.035156 C 0.886719 -3.054688 0.84375 -3.011719 0.820312 -2.867188 C 0.800781 -2.738281 0.78125 -2.613281 0.84375 -2.550781 C 0.863281 -2.550781 0.863281 -2.507812 0.863281 -2.484375 C 0.820312 -2.234375 0.800781 -2 0.738281 -1.75 C 0.652344 -1.371094 0.527344 -0.988281 0.421875 -0.632812 C 0.335938 -0.253906 0.296875 0.0859375 0.230469 0.441406 C 0.191406 0.609375 0.503906 0.925781 0.632812 0.96875 Z M 0.632812 0.96875 "/></g></g></g><g fill="#fb7185" fill-opacity="1"><g transform="translate(115.419578, 25.112833)"><g><path d="M 5.394531 -2.65625 C 5.371094 -2.632812 5.332031 -2.613281 5.308594 -2.613281 C 5.203125 -2.527344 5.078125 -2.421875 4.972656 -2.359375 C 4.972656 -2.359375 4.972656 -2.316406 4.949219 -2.273438 C 4.886719 -2.359375 4.867188 -2.273438 4.847656 -2.253906 C 4.742188 -2.191406 4.675781 -2.148438 4.636719 -2.085938 C 4.464844 -1.980469 3.980469 -1.496094 3.8125 -1.390625 C 3.582031 -1.199219 3.351562 -1.011719 3.097656 -0.820312 L 2.445312 -0.464844 C 2.359375 -0.464844 2.296875 -0.398438 2.210938 -0.359375 C 2.085938 -0.273438 1.9375 -0.210938 1.789062 -0.167969 C 1.664062 -0.0859375 1.496094 -0.0625 1.328125 -0.0195312 C 1.054688 0.0859375 0.78125 0.105469 0.527344 0.105469 C 0.464844 0.0859375 0.398438 0.0625 0.378906 0 C 0.335938 -0.191406 0.316406 -0.421875 0.398438 -0.609375 C 0.503906 -0.96875 0.652344 -1.328125 0.863281 -1.644531 C 0.988281 -1.832031 1.117188 -2 1.222656 -2.171875 C 1.328125 -2.339844 1.476562 -2.445312 1.558594 -2.613281 C 1.664062 -2.800781 1.855469 -2.929688 2.042969 -3.011719 C 2.105469 -3.054688 2.128906 -3.054688 2.171875 -2.96875 C 2.191406 -2.90625 2.253906 -2.84375 2.316406 -2.78125 C 2.402344 -2.71875 2.507812 -2.675781 2.613281 -2.613281 C 2.675781 -2.570312 2.800781 -2.550781 2.84375 -2.613281 C 2.90625 -2.695312 2.96875 -2.761719 2.96875 -2.84375 C 3.011719 -2.929688 3.011719 -3.035156 2.992188 -3.074219 C 2.90625 -3.179688 2.800781 -3.285156 2.675781 -3.371094 C 2.589844 -3.457031 2.464844 -3.496094 2.339844 -3.5625 C 2.234375 -3.625 2.128906 -3.707031 2.023438 -3.75 C 1.9375 -3.792969 1.832031 -3.75 1.75 -3.769531 C 1.558594 -3.835938 1.371094 -3.792969 1.199219 -3.625 C 1.117188 -3.5625 0.90625 -3.308594 0.886719 -3.285156 C 0.863281 -3.246094 0.820312 -3.203125 0.78125 -3.140625 C 0.738281 -3.140625 0.714844 -3.097656 0.695312 -3.054688 C 0.335938 -2.570312 -0.230469 -1.683594 -0.273438 -0.820312 C -0.316406 -0.695312 -0.316406 -0.546875 -0.316406 -0.441406 C -0.296875 -0.273438 -0.253906 -0.148438 -0.230469 -0.0195312 C -0.191406 0.0859375 -0.148438 0.191406 -0.0859375 0.273438 C 0.0195312 0.378906 0.125 0.503906 0.230469 0.589844 C 0.378906 0.675781 0.527344 0.714844 0.652344 0.78125 C 0.738281 0.800781 0.863281 0.800781 0.925781 0.820312 L 1.011719 0.84375 C 0.78125 1.410156 0.570312 1.515625 0.359375 2.253906 C 0.421875 2.484375 0.464844 2.71875 0.652344 2.824219 C 1.242188 2.589844 1.644531 2.613281 1.769531 3.011719 C 1.855469 3.285156 1.644531 3.496094 1.410156 3.644531 C 1.011719 3.898438 0.84375 3.941406 0.105469 4.085938 C -0.167969 4.152344 -0.253906 4.488281 -0.316406 4.78125 C -0.191406 4.78125 -0.0195312 4.804688 0.230469 4.78125 C 0.90625 4.71875 1.476562 4.550781 2.023438 4.128906 C 2.527344 3.730469 2.71875 3.054688 2.359375 2.484375 C 2.085938 2.066406 1.453125 2.066406 0.96875 2.128906 C 0.96875 2.128906 1.199219 1.664062 1.410156 1.304688 C 1.453125 1.222656 1.515625 1.03125 1.515625 0.863281 C 1.558594 0.84375 1.601562 0.800781 1.644531 0.757812 C 1.8125 0.695312 2.023438 0.652344 2.210938 0.570312 C 2.296875 0.527344 2.402344 0.503906 2.464844 0.464844 C 2.464844 0.378906 2.613281 0.378906 2.632812 0.359375 C 2.71875 0.253906 2.96875 0.0859375 2.992188 0.0429688 C 2.992188 0.0429688 2.992188 0.0195312 3.011719 0.0195312 C 3.074219 -0.0195312 3.496094 -0.398438 3.875 -0.738281 L 4.128906 -0.925781 C 4.171875 -0.96875 4.234375 -1.03125 4.296875 -1.117188 C 4.339844 -1.136719 4.382812 -1.179688 4.402344 -1.199219 C 4.507812 -1.222656 4.78125 -1.664062 4.886719 -1.726562 C 4.929688 -1.75 4.929688 -1.789062 4.972656 -1.832031 C 4.972656 -1.855469 5.015625 -1.894531 5.035156 -1.917969 C 5.078125 -1.960938 5.078125 -1.980469 5.097656 -2 C 5.121094 -2.085938 5.246094 -2.105469 5.203125 -2.210938 C 5.203125 -2.234375 5.226562 -2.273438 5.246094 -2.273438 C 5.371094 -2.339844 5.394531 -2.445312 5.414062 -2.570312 C 5.4375 -2.589844 5.394531 -2.613281 5.394531 -2.65625 Z M 5.394531 -2.65625 "/></g></g></g><g fill="#fb7185" fill-opacity="1"><g transform="translate(119.146144, 25.112833)"><g><path d="M 7.984375 -2.800781 L 7.902344 -2.992188 L 7.835938 -3.035156 C 7.625 -2.90625 7.457031 -2.800781 7.3125 -2.675781 C 6.824219 -2.359375 6.867188 -2.402344 6.363281 -2.085938 C 6.066406 -1.875 5.75 -1.683594 5.476562 -1.515625 C 5.183594 -1.304688 4.847656 -1.054688 4.507812 -0.90625 C 4.425781 -0.863281 4.339844 -0.863281 4.277344 -0.84375 C 4.214844 -0.820312 4.171875 -0.820312 4.128906 -0.84375 C 4.023438 -0.90625 3.960938 -0.988281 3.941406 -1.074219 C 3.8125 -1.371094 3.8125 -1.683594 3.875 -1.980469 C 3.898438 -2.023438 3.898438 -2.066406 3.917969 -2.085938 C 3.980469 -2.253906 3.960938 -2.484375 3.960938 -2.484375 C 3.917969 -2.632812 3.835938 -2.738281 3.707031 -2.78125 C 3.457031 -2.800781 3.308594 -2.632812 3.140625 -2.613281 C 3.246094 -2.824219 3.414062 -3.011719 3.351562 -3.308594 C 3.265625 -3.792969 2.761719 -3.875 2.316406 -3.960938 C 1.917969 -3.917969 1.558594 -3.664062 1.304688 -3.390625 C 1.054688 -3.074219 0.78125 -2.824219 0.546875 -2.464844 C 0.503906 -2.421875 0.464844 -2.316406 0.378906 -2.210938 L 0.230469 -1.960938 C 0.191406 -1.8125 0.125 -1.707031 0.105469 -1.582031 C 0.105469 -1.558594 0.105469 -1.558594 0.0859375 -1.539062 C 0.0429688 -1.410156 0 -1.304688 -0.0625 -1.160156 C -0.148438 -0.84375 -0.0859375 -0.570312 0.105469 -0.316406 C 0.230469 -0.253906 0.398438 -0.148438 0.441406 -0.105469 C 0.503906 -0.0859375 0.570312 -0.0859375 0.609375 -0.0859375 C 0.925781 0.0429688 1.285156 0.0429688 1.621094 -0.125 C 1.960938 -0.273438 2.296875 -0.546875 2.550781 -0.738281 C 2.589844 -0.757812 2.613281 -0.820312 2.65625 -0.863281 C 2.800781 -0.863281 2.800781 -1.074219 2.949219 -1.160156 C 2.96875 -1.117188 2.96875 -1.074219 3.011719 -1.054688 C 3.074219 -0.949219 3.054688 -0.90625 3.179688 -0.78125 C 3.265625 -0.589844 3.414062 -0.503906 3.539062 -0.335938 C 3.601562 -0.316406 3.644531 -0.230469 3.707031 -0.210938 C 3.75 -0.167969 3.875 -0.167969 3.917969 -0.148438 C 4.003906 -0.125 4.191406 -0.167969 4.277344 -0.167969 C 4.339844 -0.167969 4.445312 -0.210938 4.464844 -0.210938 C 4.53125 -0.210938 4.636719 -0.253906 4.675781 -0.273438 C 4.78125 -0.335938 4.847656 -0.316406 4.972656 -0.378906 C 5.183594 -0.527344 5.371094 -0.570312 5.539062 -0.757812 L 6.046875 -1.136719 L 6.363281 -1.410156 C 6.425781 -1.433594 6.574219 -1.601562 6.59375 -1.621094 C 6.699219 -1.664062 6.785156 -1.769531 6.847656 -1.832031 C 6.910156 -1.875 7.058594 -1.9375 7.164062 -2.023438 C 7.4375 -2.210938 7.773438 -2.484375 7.984375 -2.800781 Z M 2.84375 -2.210938 C 2.527344 -1.875 2.378906 -1.621094 2.066406 -1.285156 C 1.855469 -1.054688 1.664062 -0.90625 1.390625 -0.800781 C 1.179688 -0.714844 0.800781 -0.695312 0.570312 -0.695312 C 0.675781 -1.117188 0.863281 -1.476562 1.054688 -1.8125 C 1.285156 -2.210938 2.023438 -3.203125 2.65625 -3.308594 C 2.632812 -3.285156 2.464844 -2.359375 2.929688 -2.316406 L 2.949219 -2.316406 C 2.949219 -2.316406 2.867188 -2.210938 2.84375 -2.210938 Z M 2.84375 -2.210938 "/></g></g></g><g fill="#fb7185" fill-opacity="1"><g transform="translate(125.336392, 25.112833)"><g><path d="M 6.804688 -12.113281 C 6.761719 -12.21875 6.761719 -12.324219 6.742188 -12.492188 C 6.761719 -12.515625 6.761719 -12.558594 6.742188 -12.578125 L 6.617188 -12.683594 C 6.53125 -12.765625 6.425781 -12.851562 6.320312 -12.894531 C 6.257812 -12.9375 6.152344 -12.976562 6.066406 -13.019531 C 5.773438 -13.105469 5.519531 -13.167969 5.289062 -12.9375 C 5.121094 -12.765625 4.929688 -12.578125 4.742188 -12.410156 C 4.550781 -12.21875 4.359375 -11.945312 4.214844 -11.671875 L 3.390625 -10.15625 C 3.371094 -10.113281 3.328125 -10.113281 3.308594 -10.070312 L 3.140625 -9.710938 L 2.992188 -9.226562 C 2.96875 -9.144531 2.800781 -8.871094 2.761719 -8.847656 C 2.761719 -8.804688 2.253906 -7.519531 2.234375 -7.480469 C 2.148438 -7.351562 2.148438 -7.226562 2.105469 -7.101562 C 2.023438 -6.929688 1.960938 -6.742188 1.875 -6.59375 C 1.789062 -6.300781 1.664062 -5.960938 1.582031 -5.644531 C 1.476562 -5.371094 1.433594 -5.078125 1.371094 -4.847656 C 1.304688 -4.550781 1.285156 -4.445312 1.222656 -4.214844 C 1.179688 -4.046875 1.179688 -4.003906 1.179688 -3.917969 L 1.054688 -3.222656 C 0.90625 -2.378906 0.90625 -2.171875 0.886719 -1.894531 C 0.820312 -1.285156 0.820312 -0.925781 0.886719 -0.398438 C 0.925781 -0.167969 0.96875 0.0625 1.03125 0.253906 C 1.117188 0.441406 1.160156 0.609375 1.265625 0.757812 C 1.390625 0.90625 1.476562 1.03125 1.582031 1.160156 C 1.644531 1.222656 1.789062 1.347656 1.894531 1.390625 C 2.273438 1.558594 2.464844 1.539062 2.738281 1.476562 C 3.179688 1.347656 3.414062 0.503906 3.074219 0.652344 C 2.738281 0.886719 2.550781 1.03125 2.210938 0.886719 C 2.066406 0.820312 1.875 0.527344 1.789062 0.316406 C 1.621094 -0.0859375 1.539062 -0.570312 1.515625 -1.136719 C 1.496094 -1.496094 1.582031 -2.066406 1.621094 -2.402344 C 1.664062 -2.675781 1.769531 -3.074219 1.875 -3.246094 C 2.148438 -3.476562 2.484375 -3.835938 2.71875 -4.085938 L 3.140625 -4.488281 C 3.203125 -4.550781 3.203125 -4.65625 3.308594 -4.742188 C 3.308594 -4.742188 3.328125 -4.761719 3.371094 -4.742188 L 4.507812 -6.171875 C 4.65625 -6.382812 5.941406 -8.660156 5.960938 -8.636719 C 6.003906 -8.765625 6.046875 -8.890625 6.027344 -9.015625 C 6.003906 -9.058594 5.960938 -9.121094 6.003906 -9.1875 C 6.046875 -9.226562 6.089844 -9.3125 6.132812 -9.375 L 6.214844 -9.734375 L 6.445312 -10.027344 L 6.40625 -10.089844 C 6.445312 -10.113281 6.59375 -10.28125 6.488281 -10.40625 L 6.699219 -11.460938 C 6.636719 -11.628906 6.785156 -11.609375 6.785156 -11.777344 Z M 5.816406 -11.273438 C 5.75 -10.871094 5.667969 -10.511719 5.519531 -10.15625 C 5.414062 -9.777344 5.246094 -9.417969 5.121094 -9.121094 C 4.910156 -8.679688 4.71875 -8.320312 4.53125 -7.902344 C 4.359375 -7.625 4.234375 -7.375 4.066406 -7.121094 C 3.941406 -6.929688 3.792969 -6.722656 3.625 -6.550781 C 3.390625 -6.214844 3.097656 -5.835938 2.84375 -5.519531 C 2.65625 -5.308594 2.402344 -4.949219 2.234375 -4.761719 L 2.359375 -5.351562 C 2.402344 -5.476562 2.464844 -5.539062 2.484375 -5.605469 C 2.632812 -5.898438 2.71875 -6.214844 2.824219 -6.53125 C 2.949219 -6.742188 3.035156 -7.035156 3.117188 -7.226562 C 3.160156 -7.332031 3.140625 -7.417969 3.179688 -7.542969 C 3.179688 -7.648438 3.246094 -7.773438 3.308594 -7.921875 C 3.371094 -8.070312 3.414062 -8.238281 3.519531 -8.425781 C 3.5625 -8.492188 3.601562 -8.597656 3.644531 -8.679688 C 3.730469 -8.910156 3.835938 -9.1875 3.941406 -9.398438 C 4.023438 -9.605469 4.171875 -9.816406 4.277344 -10.027344 C 4.425781 -10.261719 4.636719 -10.492188 4.71875 -10.765625 C 4.824219 -11.039062 5.015625 -11.273438 5.203125 -11.503906 C 5.332031 -11.734375 5.539062 -11.925781 5.730469 -12.113281 C 5.773438 -12.15625 5.792969 -12.199219 5.816406 -12.242188 L 5.960938 -12.367188 C 6.003906 -12.347656 6.027344 -12.347656 6.046875 -12.347656 C 5.960938 -11.988281 5.941406 -11.609375 5.816406 -11.273438 Z M 5.816406 -11.273438 "/></g></g></g><g fill="#fb7185" fill-opacity="1"><g transform="translate(129.715731, 25.112833)"><g><path d="M 0.863281 1.707031 C 1.074219 1.582031 1.328125 1.539062 1.582031 1.390625 C 1.707031 1.265625 1.875 1.117188 1.980469 0.925781 C 2.191406 0.800781 2.339844 0.589844 2.484375 0.421875 C 2.589844 0.296875 2.738281 0.167969 2.84375 0.0195312 C 2.96875 -0.191406 3.117188 -0.359375 3.160156 -0.632812 C 3.160156 -0.632812 3.179688 -0.652344 3.222656 -0.652344 C 3.390625 -0.738281 3.433594 -0.90625 3.496094 -1.054688 C 3.5625 -1.160156 3.582031 -1.265625 3.835938 -1.875 L 4.109375 -2.589844 C 4.171875 -2.800781 4.152344 -3.035156 4.046875 -3.179688 C 4.003906 -3.203125 4.003906 -3.246094 3.980469 -3.285156 C 3.917969 -3.328125 3.898438 -3.433594 3.855469 -3.433594 C 3.792969 -3.433594 3.730469 -3.328125 3.6875 -3.246094 C 3.582031 -3.011719 3.476562 -2.800781 3.414062 -2.632812 C 3.222656 -2.316406 3.035156 -2.023438 2.867188 -1.707031 C 2.71875 -1.371094 2.507812 -1.054688 2.234375 -0.757812 C 2.128906 -0.609375 2 -0.421875 1.875 -0.316406 C 1.75 -0.125 1.582031 0.0625 1.390625 0.210938 C 1.222656 0.335938 1.054688 0.527344 0.84375 0.527344 C 0.90625 0.230469 0.925781 -0.0429688 0.96875 -0.335938 C 1.117188 -0.78125 1.199219 -1.179688 1.304688 -1.621094 C 1.371094 -2.042969 1.496094 -2.464844 1.453125 -2.886719 C 1.410156 -2.929688 1.371094 -2.96875 1.371094 -3.011719 C 1.328125 -3.054688 1.347656 -3.117188 1.328125 -3.160156 C 1.179688 -3.203125 0.988281 -3.351562 0.886719 -3.328125 L 0.695312 -2.550781 C 0.632812 -2.359375 0.609375 -2.210938 0.589844 -2.042969 C 0.527344 -1.855469 0.464844 -1.601562 0.464844 -1.390625 C 0.398438 -1.222656 0.296875 -1.011719 0.296875 -0.78125 C 0.273438 -0.609375 0.191406 -0.484375 0.148438 -0.273438 C 0.167969 0.0429688 0.125 0.359375 0.125 0.695312 C 0.125 0.738281 0.148438 0.84375 0.167969 0.96875 C 0.253906 1.117188 0.230469 1.304688 0.378906 1.304688 C 0.398438 1.304688 0.527344 1.539062 0.527344 1.558594 Z M 0.863281 1.707031 "/></g></g></g><g fill="#fb7185" fill-opacity="1"><g transform="translate(133.884496, 25.112833)"><g><path d="M 5.539062 -2.066406 C 5.605469 -2.105469 5.644531 -2.171875 5.710938 -2.210938 C 5.710938 -2.234375 5.6875 -2.234375 5.6875 -2.234375 L 5.644531 -2.378906 L 4.929688 -1.855469 C 4.886719 -1.8125 4.761719 -1.75 4.675781 -1.707031 C 4.464844 -1.582031 4.066406 -1.347656 3.875 -1.222656 L 3.8125 -1.179688 L 3.117188 -0.78125 C 3.011719 -0.714844 2.90625 -0.714844 2.800781 -0.675781 C 2.632812 -0.609375 2.464844 -0.527344 2.316406 -0.464844 C 2.128906 -0.398438 1.9375 -0.316406 1.75 -0.296875 C 1.476562 -0.253906 1.199219 -0.273438 0.925781 -0.253906 C 0.757812 -0.316406 0.714844 -0.359375 0.632812 -0.609375 C 0.78125 -0.695312 0.84375 -0.714844 1.011719 -0.800781 C 1.054688 -0.84375 1.09375 -0.90625 1.160156 -0.925781 C 1.285156 -1.011719 1.453125 -1.074219 1.601562 -1.160156 C 1.621094 -1.179688 1.621094 -1.242188 1.644531 -1.265625 L 1.9375 -1.476562 C 2.023438 -1.515625 2.171875 -1.539062 2.191406 -1.683594 C 2.210938 -1.75 2.339844 -1.769531 2.402344 -1.832031 C 2.589844 -2.023438 2.78125 -2.210938 2.96875 -2.421875 C 3.035156 -2.484375 3.097656 -2.589844 3.140625 -2.695312 C 3.203125 -2.867188 3.097656 -3.222656 2.929688 -3.328125 C 2.78125 -3.457031 2.613281 -3.582031 2.421875 -3.664062 C 2.273438 -3.75 2.085938 -3.898438 1.875 -3.8125 C 1.789062 -3.792969 1.726562 -3.769531 1.664062 -3.769531 C 1.390625 -3.75 1.160156 -3.625 0.96875 -3.433594 C 0.78125 -3.222656 0.589844 -3.011719 0.398438 -2.78125 C 0.296875 -2.65625 0.210938 -2.527344 0.125 -2.402344 C -0.0859375 -2 -0.191406 -1.601562 -0.210938 -1.179688 C -0.210938 -1.03125 -0.230469 -0.886719 -0.125 -0.632812 C -0.0859375 -0.421875 -0.0859375 -0.421875 -0.0429688 -0.378906 C 0.0859375 -0.191406 0.167969 -0.0625 0.316406 0.0429688 C 0.335938 0.0625 0.398438 0.0859375 0.421875 0.125 C 0.632812 0.296875 0.714844 0.316406 0.90625 0.378906 C 1.09375 0.441406 1.328125 0.484375 1.539062 0.503906 C 1.707031 0.527344 1.855469 0.484375 2.023438 0.441406 C 2.128906 0.421875 2.253906 0.398438 2.339844 0.359375 C 2.402344 0.316406 2.445312 0.296875 2.527344 0.296875 C 2.675781 0.273438 2.824219 0.273438 2.949219 0.210938 C 3.160156 0.125 3.328125 -0.0195312 3.519531 -0.125 C 3.664062 -0.230469 3.792969 -0.316406 3.960938 -0.398438 L 4.359375 -0.714844 C 4.445312 -0.78125 4.550781 -0.863281 4.636719 -0.949219 C 4.65625 -0.96875 4.742188 -1.054688 4.761719 -1.117188 L 4.761719 -1.136719 C 4.78125 -1.285156 4.867188 -1.328125 4.949219 -1.390625 C 4.886719 -1.453125 4.929688 -1.496094 5.015625 -1.539062 L 5.078125 -1.621094 C 5.183594 -1.683594 5.183594 -1.75 5.226562 -1.789062 Z M 0.757812 -1.894531 C 0.886719 -2.148438 1.03125 -2.402344 1.199219 -2.632812 C 1.347656 -2.824219 1.539062 -2.929688 1.726562 -3.074219 C 1.894531 -3.203125 2.085938 -3.203125 2.273438 -3.285156 C 2.359375 -3.328125 2.464844 -3.140625 2.402344 -3.035156 C 2.316406 -2.886719 2.234375 -2.761719 2.105469 -2.65625 L 1.539062 -2.148438 L 0.96875 -1.683594 C 0.886719 -1.621094 0.78125 -1.558594 0.609375 -1.453125 C 0.652344 -1.621094 0.695312 -1.769531 0.757812 -1.894531 Z M 0.757812 -1.894531 "/></g></g></g><g fill="#fb7185" fill-opacity="1"><g transform="translate(138.558634, 25.112833)"><g><path d="M 3.6875 -4.152344 C 3.625 -4.191406 3.519531 -4.296875 3.097656 -4.296875 C 2.84375 -4.296875 2.738281 -4.234375 2.550781 -4.191406 L 2.359375 -4.085938 C 2.210938 -4.023438 2.210938 -4.023438 2.105469 -3.941406 C 2.042969 -3.8125 1.9375 -3.6875 1.855469 -3.582031 C 1.75 -3.457031 1.789062 -3.265625 1.769531 -3.117188 C 1.683594 -3.035156 1.707031 -2.78125 1.707031 -2.695312 L 1.789062 -2.527344 C 1.769531 -2.421875 1.8125 -2.339844 1.855469 -2.253906 C 1.960938 -2.066406 1.980469 -1.9375 2.066406 -1.683594 L 2.085938 -1.601562 L 2.128906 -1.496094 L 2.210938 -1.371094 L 2.339844 -1.117188 L 2.378906 -1.054688 L 2.675781 -0.296875 C 2.800781 0.0195312 2.84375 0.167969 2.824219 0.441406 C 2.84375 0.609375 2.84375 0.800781 2.800781 0.988281 C 2.78125 1.117188 2.738281 1.265625 2.632812 1.410156 C 2.464844 1.644531 2.339844 1.707031 1.9375 1.769531 C 1.8125 1.789062 1.644531 1.75 1.539062 1.683594 C 1.371094 1.515625 1.242188 1.433594 1.242188 1.242188 C 1.265625 1.199219 1.199219 1.136719 1.160156 1.09375 C 1.074219 0.949219 1.054688 0.757812 1.09375 0.398438 L 1.222656 0.105469 L 1.476562 -0.167969 L 1.453125 -0.359375 L 1.410156 -0.398438 L 1.410156 -0.421875 C 1.222656 -0.335938 1.199219 -0.359375 1.03125 -0.230469 C 0.84375 -0.105469 0.632812 0.0859375 0.484375 0.273438 L 0.464844 0.652344 C 0.464844 0.652344 0.421875 0.652344 0.421875 0.695312 L 0.421875 0.714844 C 0.421875 0.925781 0.484375 1.160156 0.589844 1.304688 C 0.675781 1.410156 0.757812 1.582031 0.90625 1.707031 C 0.988281 1.832031 1.160156 2 1.347656 2.128906 C 1.433594 2.253906 1.601562 2.253906 1.644531 2.296875 C 1.75 2.339844 1.917969 2.339844 2.085938 2.378906 C 2.273438 2.402344 2.421875 2.421875 2.550781 2.378906 L 2.761719 2.316406 C 2.738281 2.273438 2.71875 2.273438 2.71875 2.253906 C 2.78125 2.253906 2.84375 2.253906 2.90625 2.234375 C 3.035156 2.191406 3.246094 2 3.390625 1.789062 C 3.539062 1.664062 3.582031 1.453125 3.582031 1.433594 C 3.601562 1.304688 3.75 1.136719 3.664062 1.054688 C 3.707031 0.949219 3.6875 0.90625 3.664062 0.84375 C 3.707031 0.527344 3.730469 0.378906 3.664062 0.0625 C 3.664062 0.0195312 3.601562 0 3.601562 -0.0429688 C 3.644531 -0.125 3.601562 -0.148438 3.5625 -0.191406 C 3.539062 -0.253906 3.496094 -0.316406 3.496094 -0.421875 L 3.433594 -0.632812 C 3.371094 -0.820312 3.328125 -0.84375 3.285156 -1.03125 C 3.285156 -1.09375 3.160156 -1.179688 3.179688 -1.242188 C 3.160156 -1.285156 3.097656 -1.304688 3.117188 -1.347656 L 3.011719 -1.433594 L 2.949219 -1.621094 L 2.90625 -1.726562 L 2.824219 -1.875 L 2.824219 -2 C 2.78125 -2.023438 2.78125 -2.042969 2.78125 -2.105469 C 2.78125 -2.171875 2.71875 -2.234375 2.71875 -2.316406 C 2.65625 -2.484375 2.589844 -2.613281 2.613281 -2.824219 C 2.550781 -2.992188 2.550781 -3.160156 2.613281 -3.285156 C 2.632812 -3.390625 2.71875 -3.457031 2.78125 -3.496094 C 2.824219 -3.5625 2.886719 -3.601562 2.929688 -3.625 C 3.011719 -3.6875 3.011719 -3.644531 3.203125 -3.707031 L 3.433594 -3.707031 C 3.6875 -3.644531 3.898438 -3.582031 3.960938 -3.476562 L 4.023438 -3.476562 L 4.023438 -3.496094 L 4.128906 -3.496094 L 4.152344 -3.457031 L 4.191406 -3.433594 C 4.191406 -3.519531 4.214844 -3.8125 3.6875 -4.152344 Z M 3.6875 -4.152344 "/></g></g></g><g fill="#000000" fill-opacity="1"><g transform="translate(142.958237, 25.112833)"><g><path d="M 7.648438 2.800781 C 8.300781 2.65625 8.765625 2.402344 9.710938 2 C 9.710938 1.917969 9.460938 2.023438 9.332031 2 C 9.269531 1.960938 9.460938 1.894531 9.566406 1.832031 C 9.734375 1.726562 10.300781 1.390625 10.261719 1.265625 C 10.617188 0.949219 10.996094 0.609375 11.25 0.359375 C 11.417969 0.191406 11.460938 -0.0859375 11.375 -0.0859375 C 11.101562 0.0195312 10.070312 0.863281 9.710938 1.09375 C 8.597656 1.8125 7.730469 2.128906 6.636719 2.191406 C 5.941406 2.234375 4.507812 2.128906 3.203125 0.90625 C 2.378906 0.125 2.128906 -0.90625 2.191406 -2.042969 C 2.234375 -2.867188 2.339844 -3.664062 2.695312 -4.402344 C 3.011719 -5.203125 3.433594 -5.941406 4.003906 -6.59375 C 4.214844 -6.867188 4.507812 -7.140625 4.78125 -7.394531 C 4.910156 -7.519531 5.097656 -7.710938 5.289062 -7.859375 C 5.960938 -8.425781 6.617188 -8.785156 7.480469 -8.953125 C 7.921875 -9.039062 8.574219 -9.015625 9.015625 -8.847656 C 9.816406 -8.53125 10.40625 -7.5625 10.21875 -6.65625 C 10.089844 -6.046875 9.921875 -5.75 9.523438 -5.351562 C 9.25 -5.078125 8.976562 -4.972656 9.039062 -4.804688 C 9.355469 -4.296875 9.691406 -4.425781 10.132812 -4.78125 C 11.0625 -5.5625 11.144531 -6.617188 11.125 -7.207031 C 11.101562 -7.753906 10.785156 -8.511719 10.324219 -8.933594 C 9.292969 -9.859375 8.132812 -10.089844 6.46875 -9.566406 C 5.773438 -9.332031 4.699219 -8.511719 4.214844 -8.070312 C 3.664062 -7.5625 3.160156 -6.996094 2.695312 -6.363281 C 2.210938 -5.6875 1.832031 -4.972656 1.539062 -4.214844 C 0.96875 -2.800781 0.84375 -1.328125 1.410156 0.0625 C 2.464844 2.527344 5.5625 3.265625 7.648438 2.800781 Z M 7.648438 2.800781 "/></g></g></g><g fill="#000000" fill-opacity="1"><g transform="translate(153.970583, 25.112833)"><g><path d="M 7.984375 -2.800781 L 7.902344 -2.992188 L 7.835938 -3.035156 C 7.625 -2.90625 7.457031 -2.800781 7.3125 -2.675781 C 6.824219 -2.359375 6.867188 -2.402344 6.363281 -2.085938 C 6.066406 -1.875 5.75 -1.683594 5.476562 -1.515625 C 5.183594 -1.304688 4.847656 -1.054688 4.507812 -0.90625 C 4.425781 -0.863281 4.339844 -0.863281 4.277344 -0.84375 C 4.214844 -0.820312 4.171875 -0.820312 4.128906 -0.84375 C 4.023438 -0.90625 3.960938 -0.988281 3.941406 -1.074219 C 3.8125 -1.371094 3.8125 -1.683594 3.875 -1.980469 C 3.898438 -2.023438 3.898438 -2.066406 3.917969 -2.085938 C 3.980469 -2.253906 3.960938 -2.484375 3.960938 -2.484375 C 3.917969 -2.632812 3.835938 -2.738281 3.707031 -2.78125 C 3.457031 -2.800781 3.308594 -2.632812 3.140625 -2.613281 C 3.246094 -2.824219 3.414062 -3.011719 3.351562 -3.308594 C 3.265625 -3.792969 2.761719 -3.875 2.316406 -3.960938 C 1.917969 -3.917969 1.558594 -3.664062 1.304688 -3.390625 C 1.054688 -3.074219 0.78125 -2.824219 0.546875 -2.464844 C 0.503906 -2.421875 0.464844 -2.316406 0.378906 -2.210938 L 0.230469 -1.960938 C 0.191406 -1.8125 0.125 -1.707031 0.105469 -1.582031 C 0.105469 -1.558594 0.105469 -1.558594 0.0859375 -1.539062 C 0.0429688 -1.410156 0 -1.304688 -0.0625 -1.160156 C -0.148438 -0.84375 -0.0859375 -0.570312 0.105469 -0.316406 C 0.230469 -0.253906 0.398438 -0.148438 0.441406 -0.105469 C 0.503906 -0.0859375 0.570312 -0.0859375 0.609375 -0.0859375 C 0.925781 0.0429688 1.285156 0.0429688 1.621094 -0.125 C 1.960938 -0.273438 2.296875 -0.546875 2.550781 -0.738281 C 2.589844 -0.757812 2.613281 -0.820312 2.65625 -0.863281 C 2.800781 -0.863281 2.800781 -1.074219 2.949219 -1.160156 C 2.96875 -1.117188 2.96875 -1.074219 3.011719 -1.054688 C 3.074219 -0.949219 3.054688 -0.90625 3.179688 -0.78125 C 3.265625 -0.589844 3.414062 -0.503906 3.539062 -0.335938 C 3.601562 -0.316406 3.644531 -0.230469 3.707031 -0.210938 C 3.75 -0.167969 3.875 -0.167969 3.917969 -0.148438 C 4.003906 -0.125 4.191406 -0.167969 4.277344 -0.167969 C 4.339844 -0.167969 4.445312 -0.210938 4.464844 -0.210938 C 4.53125 -0.210938 4.636719 -0.253906 4.675781 -0.273438 C 4.78125 -0.335938 4.847656 -0.316406 4.972656 -0.378906 C 5.183594 -0.527344 5.371094 -0.570312 5.539062 -0.757812 L 6.046875 -1.136719 L 6.363281 -1.410156 C 6.425781 -1.433594 6.574219 -1.601562 6.59375 -1.621094 C 6.699219 -1.664062 6.785156 -1.769531 6.847656 -1.832031 C 6.910156 -1.875 7.058594 -1.9375 7.164062 -2.023438 C 7.4375 -2.210938 7.773438 -2.484375 7.984375 -2.800781 Z M 2.84375 -2.210938 C 2.527344 -1.875 2.378906 -1.621094 2.066406 -1.285156 C 1.855469 -1.054688 1.664062 -0.90625 1.390625 -0.800781 C 1.179688 -0.714844 0.800781 -0.695312 0.570312 -0.695312 C 0.675781 -1.117188 0.863281 -1.476562 1.054688 -1.8125 C 1.285156 -2.210938 2.023438 -3.203125 2.65625 -3.308594 C 2.632812 -3.285156 2.464844 -2.359375 2.929688 -2.316406 L 2.949219 -2.316406 C 2.949219 -2.316406 2.867188 -2.210938 2.84375 -2.210938 Z M 2.84375 -2.210938 "/></g></g></g><g fill="#000000" fill-opacity="1"><g transform="translate(160.16083, 25.112833)"><g><path d="M 6.804688 2.105469 C 6.929688 1.960938 6.929688 1.917969 6.929688 1.855469 C 6.972656 1.8125 7.015625 1.789062 7.015625 1.75 C 7.058594 1.664062 6.972656 1.515625 6.929688 1.558594 C 6.636719 1.664062 6.46875 1.558594 6.339844 1.304688 C 6.234375 0.90625 6.234375 0.820312 6.195312 0.695312 C 6.152344 0.527344 6.152344 0.335938 6.132812 0.148438 C 6.152344 0.0195312 6.066406 -0.125 6.152344 -0.253906 L 6.152344 -0.359375 C 6.152344 -0.464844 6.152344 -0.570312 6.132812 -0.632812 C 6.152344 -0.78125 6.152344 -0.988281 5.960938 -0.988281 L 5.835938 -1.179688 C 5.625 -1.265625 5.539062 -1.371094 5.332031 -1.433594 C 5.289062 -1.476562 5.183594 -1.453125 5.121094 -1.433594 C 4.949219 -1.285156 4.867188 -1.242188 4.78125 -1.179688 C 4.636719 -1.09375 4.488281 -0.988281 4.359375 -0.886719 C 4.128906 -0.695312 3.792969 -0.359375 3.519531 -0.125 C 3.5625 -0.359375 3.601562 -0.820312 3.664062 -0.988281 C 3.75 -1.160156 3.707031 -1.347656 3.730469 -1.539062 C 3.75 -1.601562 3.730469 -1.683594 3.707031 -1.726562 C 3.664062 -1.894531 3.707031 -2.066406 3.644531 -2.210938 C 3.5625 -2.210938 3.496094 -2.253906 3.414062 -2.210938 C 3.203125 -2.148438 3.011719 -2.234375 2.886719 -2.378906 C 2.800781 -2.445312 2.738281 -2.464844 2.65625 -2.402344 C 2.484375 -2.273438 2.359375 -2.105469 2.210938 -1.960938 C 1.980469 -1.726562 1.832031 -1.410156 1.644531 -1.179688 C 1.371094 -0.714844 1.265625 -0.570312 1.199219 -0.441406 C 1.179688 -0.421875 1.136719 -0.398438 1.074219 -0.378906 C 1.117188 -0.609375 1.371094 -1.265625 1.390625 -1.433594 C 1.476562 -1.726562 1.515625 -2 1.558594 -2.273438 C 1.621094 -2.484375 1.644531 -2.71875 1.601562 -2.929688 C 1.558594 -3.117188 1.453125 -3.160156 1.304688 -3.203125 C 1.179688 -3.246094 1.117188 -3.246094 0.949219 -3.265625 C 0.949219 -3.222656 0.863281 -3.140625 0.886719 -3.097656 C 0.925781 -3.011719 0.886719 -2.90625 0.886719 -2.800781 C 0.78125 -2.402344 0.714844 -1.980469 0.609375 -1.582031 C 0.421875 -0.886719 0.273438 -0.191406 0.210938 0.527344 C 0.191406 0.757812 0.230469 0.96875 0.359375 1.136719 L 0.632812 1.304688 L 0.800781 1.179688 C 0.820312 1.117188 0.863281 1.074219 0.90625 1.054688 C 0.988281 0.96875 1.117188 0.925781 1.179688 0.820312 C 1.371094 0.527344 1.539062 0.230469 1.75 -0.0625 L 1.875 -0.335938 L 2.191406 -0.738281 C 2.296875 -0.886719 2.527344 -1.160156 2.78125 -1.476562 C 2.824219 -1.410156 2.84375 -1.371094 2.824219 -1.347656 C 2.78125 -1.03125 2.675781 -0.421875 2.632812 -0.125 L 2.761719 0.335938 C 2.761719 0.378906 2.84375 0.421875 2.867188 0.464844 C 2.886719 0.527344 2.949219 0.527344 2.949219 0.570312 C 2.96875 0.652344 3.011719 0.695312 3.097656 0.675781 L 3.328125 0.78125 C 3.433594 0.800781 3.496094 0.820312 3.5625 0.820312 L 3.707031 0.695312 C 3.875 0.570312 4.085938 0.503906 4.234375 0.316406 C 4.464844 0.0429688 4.761719 -0.167969 5.035156 -0.441406 C 5.054688 -0.464844 5.097656 -0.464844 5.097656 -0.503906 C 5.226562 -0.609375 5.289062 -0.632812 5.351562 -0.609375 L 5.371094 -0.148438 C 5.351562 0.0625 5.414062 0.359375 5.414062 0.632812 C 5.4375 0.925781 5.5625 1.199219 5.605469 1.390625 C 5.710938 1.644531 5.855469 1.875 6.046875 1.980469 C 6.234375 2.148438 6.722656 2.148438 6.804688 2.105469 Z M 6.804688 2.105469 "/></g></g></g><g fill="#000000" fill-opacity="1"><g transform="translate(167.256537, 25.112833)"><g><path d="M -1.285156 9.332031 C -1.199219 9.3125 -1.117188 9.292969 -1.074219 9.269531 C -1.074219 9.164062 -1.054688 9.101562 -1.03125 9.015625 C -1.03125 9.015625 -0.988281 9.015625 -0.988281 9.039062 C -0.96875 9.015625 -0.949219 8.996094 -0.949219 8.976562 C -0.90625 8.871094 -0.886719 8.703125 -0.863281 8.597656 C -0.84375 8.53125 -0.800781 8.40625 -0.820312 8.34375 C -0.863281 8.195312 -0.800781 8.007812 -0.800781 7.878906 C -0.78125 7.667969 -0.695312 7.4375 -0.675781 7.269531 C -0.675781 7.207031 -0.695312 7.164062 -0.695312 7.164062 C -0.652344 7.015625 -0.609375 6.910156 -0.570312 6.761719 L -0.652344 6.722656 C -0.484375 6.59375 -0.464844 6.320312 -0.527344 6.257812 C -0.484375 6.171875 -0.464844 6.152344 -0.464844 6.089844 C -0.441406 5.960938 -0.441406 5.878906 -0.398438 5.710938 C -0.398438 5.6875 -0.359375 5.644531 -0.359375 5.605469 C -0.335938 5.308594 -0.316406 5.035156 -0.0859375 4.59375 L -0.0859375 4.253906 L 0.0195312 3.941406 C 0 3.917969 0 3.875 0 3.855469 C 0.0429688 3.730469 0.0625 3.601562 0.105469 3.433594 C 0.167969 3.308594 0.230469 3.097656 0.273438 2.886719 C 0.296875 2.78125 0.273438 2.675781 0.296875 2.550781 C 0.273438 2.550781 0.273438 2.550781 0.230469 2.527344 C 0.273438 2.527344 0.296875 2.507812 0.316406 2.507812 C 0.296875 2.484375 0.273438 2.484375 0.230469 2.464844 C 0.378906 2.402344 0.503906 2.066406 0.441406 1.769531 C 0.589844 1.75 0.527344 1.644531 0.546875 1.582031 C 0.589844 1.476562 0.632812 1.390625 0.546875 1.347656 C 0.570312 1.328125 0.632812 1.328125 0.632812 1.304688 C 0.675781 1.179688 0.695312 1.074219 0.738281 0.925781 C 0.738281 0.925781 0.714844 0.925781 0.695312 0.90625 L 0.675781 0.90625 C 0.886719 0.90625 0.863281 0.695312 0.96875 0.570312 C 0.925781 0.589844 1.054688 0.273438 1.117188 0.191406 C 1.117188 0.167969 1.117188 0.125 1.074219 0.105469 L 1.199219 0.105469 C 1.265625 -0.0625 1.496094 -0.546875 1.601562 -0.652344 C 1.8125 -0.863281 2.023438 -1.117188 2.191406 -1.390625 C 2.316406 -1.621094 2.527344 -1.726562 2.71875 -1.894531 C 2.84375 -1.980469 2.949219 -2.042969 3.054688 -2.171875 C 3.140625 -2.210938 3.203125 -2.296875 3.265625 -2.359375 L 3.308594 -2.359375 C 3.433594 -2.464844 3.5625 -2.507812 3.75 -2.589844 C 3.855469 -2.675781 4.109375 -2.695312 4.191406 -2.589844 C 4.234375 -2.484375 4.296875 -2.339844 4.296875 -2.210938 C 4.339844 -2.023438 4.253906 -1.875 4.191406 -1.683594 C 4.191406 -1.644531 4.128906 -1.582031 4.109375 -1.496094 L 4.109375 -1.410156 C 3.980469 -1.199219 3.875 -1.054688 3.75 -0.886719 C 3.644531 -0.695312 3.457031 -0.546875 3.308594 -0.398438 C 3.203125 -0.273438 3.074219 -0.125 2.867188 -0.0859375 C 2.78125 -0.0625 2.65625 -0.105469 2.65625 -0.273438 C 2.632812 -0.359375 2.632812 -0.464844 2.507812 -0.464844 C 2.507812 -0.359375 2.421875 -0.296875 2.464844 -0.230469 C 2.484375 -0.0195312 2.550781 0.167969 2.71875 0.253906 L 2.761719 0.273438 C 2.78125 0.398438 2.84375 0.421875 2.929688 0.464844 C 3.054688 0.503906 3.179688 0.570312 3.285156 0.589844 C 3.308594 0.609375 3.371094 0.589844 3.414062 0.589844 C 3.582031 0.503906 3.707031 0.464844 3.875 0.359375 L 4.320312 -0.0195312 C 4.445312 -0.230469 4.613281 -0.398438 4.761719 -0.589844 C 4.847656 -0.800781 5.035156 -1.054688 5.078125 -1.285156 C 5.183594 -1.496094 5.121094 -1.789062 5.121094 -2.023438 C 5.121094 -2.105469 5.097656 -2.191406 5.097656 -2.296875 C 5.121094 -2.339844 5.121094 -2.359375 5.078125 -2.359375 C 5.035156 -2.589844 4.488281 -2.929688 4.464844 -2.929688 C 4.320312 -2.96875 4.253906 -3.011719 4.152344 -3.035156 C 4.023438 -3.054688 3.835938 -3.117188 3.6875 -3.117188 C 3.476562 -3.117188 3.265625 -3.097656 3.011719 -2.96875 L 2.675781 -2.71875 L 2.296875 -2.507812 C 2.253906 -2.484375 2.253906 -2.464844 2.234375 -2.378906 C 2.234375 -2.359375 2.171875 -2.316406 2.148438 -2.296875 C 1.644531 -1.621094 1.433594 -1.136719 1.453125 -1.136719 C 1.265625 -0.84375 1.222656 -0.863281 1.160156 -0.757812 C 1.179688 -0.90625 1.222656 -1.03125 1.265625 -1.117188 L 1.265625 -1.160156 C 1.304688 -1.644531 1.371094 -1.726562 1.390625 -1.9375 L 1.433594 -1.9375 C 1.476562 -2.171875 1.539062 -2.316406 1.582031 -2.507812 C 1.601562 -2.527344 1.601562 -2.570312 1.621094 -2.589844 C 1.558594 -2.675781 1.558594 -2.71875 1.644531 -2.761719 C 1.664062 -2.824219 1.683594 -2.90625 1.683594 -2.949219 C 1.726562 -3.035156 1.726562 -3.097656 1.707031 -3.160156 L 1.644531 -3.433594 C 1.582031 -3.5625 1.496094 -3.6875 1.304688 -3.664062 L 1.242188 -3.664062 C 1.117188 -3.6875 1.074219 -3.644531 1.054688 -3.496094 C 0.949219 -3.308594 0.90625 -3.140625 0.84375 -2.96875 C 0.78125 -2.695312 0.695312 -2.421875 0.609375 -2.148438 C 0.570312 -1.917969 0.503906 -1.707031 0.484375 -1.496094 C 0.378906 -1.117188 0.335938 -0.757812 0.253906 -0.398438 C 0.230469 -0.210938 0.148438 0 0.105469 0.210938 C 0.0195312 0.546875 -0.0625 0.84375 -0.125 1.160156 C -0.210938 1.601562 -0.316406 2.066406 -0.464844 2.507812 C -0.464844 2.589844 -0.484375 2.675781 -0.503906 2.78125 C -0.546875 3.035156 -0.800781 4.085938 -0.96875 4.570312 C -0.988281 4.59375 -1.054688 4.675781 -1.011719 4.71875 C -0.96875 4.804688 -0.988281 4.910156 -1.054688 4.992188 C -1.09375 5.054688 -1.117188 5.121094 -1.136719 5.203125 C -1.09375 5.203125 -1.074219 5.203125 -1.011719 5.226562 C -1.136719 5.289062 -1.179688 5.5 -1.09375 5.6875 C -1.136719 5.6875 -1.160156 5.667969 -1.179688 5.667969 C -1.410156 6.722656 -1.582031 7.773438 -1.894531 8.847656 L -1.707031 9.082031 L -1.558594 9.101562 C -1.453125 9.207031 -1.371094 9.292969 -1.285156 9.332031 Z M -1.285156 9.332031 "/></g></g></g><g fill="#000000" fill-opacity="1"><g transform="translate(172.414987, 25.112833)"><g><path d="M 5.984375 -2.886719 C 5.457031 -2.695312 5.203125 -2.632812 4.886719 -2.507812 C 4.53125 -2.378906 4.152344 -2.273438 3.769531 -2.128906 C 3.75 -2.148438 3.769531 -2.171875 3.769531 -2.191406 L 3.625 -2.65625 C 3.519531 -2.867188 3.433594 -2.992188 3.308594 -3.097656 C 3.265625 -3.117188 3.179688 -3.117188 3.160156 -3.140625 C 2.90625 -3.351562 2.613281 -3.351562 2.402344 -3.433594 C 2.359375 -3.457031 2.316406 -3.457031 2.296875 -3.476562 C 2.210938 -3.5625 2.171875 -3.664062 2.066406 -3.664062 C 1.894531 -3.664062 1.683594 -3.6875 1.496094 -3.601562 C 1.242188 -3.476562 1.03125 -3.308594 0.84375 -3.117188 C 0.714844 -2.992188 0.632812 -2.738281 0.484375 -2.527344 C 0.464844 -2.527344 0.421875 -2.253906 0.378906 -2.128906 C 0.273438 -1.75 0.0859375 -1.347656 0.105469 -0.949219 C 0.125 -0.609375 0.148438 -0.210938 0.378906 0.0195312 C 0.527344 0.210938 0.695312 0.359375 0.949219 0.398438 C 1.117188 0.484375 1.371094 0.484375 1.582031 0.503906 C 1.621094 0.527344 1.707031 0.527344 1.789062 0.503906 C 1.980469 0.441406 2.128906 0.398438 2.296875 0.296875 C 2.378906 0.296875 2.464844 0.253906 2.527344 0.210938 C 2.613281 0.105469 2.738281 0 2.84375 -0.105469 L 2.886719 -0.148438 C 3.074219 -0.359375 3.179688 -0.570312 3.351562 -0.757812 C 3.371094 -0.78125 3.351562 -0.863281 3.371094 -0.886719 C 3.496094 -0.96875 3.496094 -1.09375 3.601562 -1.199219 C 3.601562 -1.199219 3.601562 -1.222656 3.601562 -1.222656 L 3.5625 -1.242188 C 3.5625 -1.328125 3.601562 -1.390625 3.625 -1.453125 C 3.625 -1.539062 3.644531 -1.582031 3.75 -1.582031 C 3.792969 -1.582031 3.835938 -1.601562 3.898438 -1.601562 C 4.109375 -1.621094 4.277344 -1.644531 4.507812 -1.75 L 4.804688 -1.875 C 4.910156 -1.917969 5.078125 -1.917969 5.097656 -2.042969 C 5.097656 -2.066406 5.121094 -2.066406 5.140625 -2.066406 L 5.289062 -2.066406 C 5.371094 -2.066406 5.371094 -2.148438 5.457031 -2.210938 C 5.582031 -2.296875 5.75 -2.421875 6.003906 -2.675781 L 6.003906 -2.867188 Z M 2.992188 -2.042969 L 2.402344 -2.042969 C 2.273438 -2.042969 2.210938 -2.066406 2.171875 -2.171875 C 2.105469 -2.273438 2.085938 -2.402344 2.085938 -2.507812 C 2.105469 -2.695312 2.253906 -2.78125 2.378906 -2.886719 C 2.445312 -2.949219 2.550781 -2.992188 2.675781 -2.992188 C 2.738281 -3.011719 2.78125 -3.011719 2.824219 -2.949219 C 2.929688 -2.78125 2.949219 -2.570312 2.992188 -2.402344 C 2.992188 -2.273438 2.96875 -2.148438 2.992188 -2.042969 Z M 2.800781 -1.410156 C 2.695312 -1.265625 2.65625 -1.09375 2.570312 -0.96875 C 2.464844 -0.800781 2.339844 -0.652344 2.210938 -0.527344 C 1.980469 -0.296875 1.683594 -0.0859375 1.371094 0 C 1.09375 0.105469 0.84375 0.0195312 0.820312 -0.148438 C 0.800781 -0.273438 0.757812 -0.378906 0.757812 -0.527344 C 0.757812 -0.738281 0.757812 -0.988281 0.84375 -1.199219 C 0.863281 -1.304688 0.863281 -1.410156 0.90625 -1.539062 C 0.925781 -1.621094 0.96875 -1.75 1.03125 -1.832031 C 1.136719 -2.042969 1.242188 -2.210938 1.347656 -2.464844 C 1.371094 -2.378906 1.410156 -2.296875 1.453125 -2.234375 C 1.496094 -2.105469 1.601562 -2 1.75 -1.917969 C 1.917969 -1.789062 2.148438 -1.683594 2.359375 -1.644531 C 2.464844 -1.601562 2.632812 -1.582031 2.738281 -1.582031 C 2.84375 -1.539062 2.886719 -1.515625 2.800781 -1.410156 Z M 2.800781 -1.410156 "/></g></g></g><g fill="#000000" fill-opacity="1"><g transform="translate(176.731151, 25.112833)"><g><path d="M 3.6875 -4.152344 C 3.625 -4.191406 3.519531 -4.296875 3.097656 -4.296875 C 2.84375 -4.296875 2.738281 -4.234375 2.550781 -4.191406 L 2.359375 -4.085938 C 2.210938 -4.023438 2.210938 -4.023438 2.105469 -3.941406 C 2.042969 -3.8125 1.9375 -3.6875 1.855469 -3.582031 C 1.75 -3.457031 1.789062 -3.265625 1.769531 -3.117188 C 1.683594 -3.035156 1.707031 -2.78125 1.707031 -2.695312 L 1.789062 -2.527344 C 1.769531 -2.421875 1.8125 -2.339844 1.855469 -2.253906 C 1.960938 -2.066406 1.980469 -1.9375 2.066406 -1.683594 L 2.085938 -1.601562 L 2.128906 -1.496094 L 2.210938 -1.371094 L 2.339844 -1.117188 L 2.378906 -1.054688 L 2.675781 -0.296875 C 2.800781 0.0195312 2.84375 0.167969 2.824219 0.441406 C 2.84375 0.609375 2.84375 0.800781 2.800781 0.988281 C 2.78125 1.117188 2.738281 1.265625 2.632812 1.410156 C 2.464844 1.644531 2.339844 1.707031 1.9375 1.769531 C 1.8125 1.789062 1.644531 1.75 1.539062 1.683594 C 1.371094 1.515625 1.242188 1.433594 1.242188 1.242188 C 1.265625 1.199219 1.199219 1.136719 1.160156 1.09375 C 1.074219 0.949219 1.054688 0.757812 1.09375 0.398438 L 1.222656 0.105469 L 1.476562 -0.167969 L 1.453125 -0.359375 L 1.410156 -0.398438 L 1.410156 -0.421875 C 1.222656 -0.335938 1.199219 -0.359375 1.03125 -0.230469 C 0.84375 -0.105469 0.632812 0.0859375 0.484375 0.273438 L 0.464844 0.652344 C 0.464844 0.652344 0.421875 0.652344 0.421875 0.695312 L 0.421875 0.714844 C 0.421875 0.925781 0.484375 1.160156 0.589844 1.304688 C 0.675781 1.410156 0.757812 1.582031 0.90625 1.707031 C 0.988281 1.832031 1.160156 2 1.347656 2.128906 C 1.433594 2.253906 1.601562 2.253906 1.644531 2.296875 C 1.75 2.339844 1.917969 2.339844 2.085938 2.378906 C 2.273438 2.402344 2.421875 2.421875 2.550781 2.378906 L 2.761719 2.316406 C 2.738281 2.273438 2.71875 2.273438 2.71875 2.253906 C 2.78125 2.253906 2.84375 2.253906 2.90625 2.234375 C 3.035156 2.191406 3.246094 2 3.390625 1.789062 C 3.539062 1.664062 3.582031 1.453125 3.582031 1.433594 C 3.601562 1.304688 3.75 1.136719 3.664062 1.054688 C 3.707031 0.949219 3.6875 0.90625 3.664062 0.84375 C 3.707031 0.527344 3.730469 0.378906 3.664062 0.0625 C 3.664062 0.0195312 3.601562 0 3.601562 -0.0429688 C 3.644531 -0.125 3.601562 -0.148438 3.5625 -0.191406 C 3.539062 -0.253906 3.496094 -0.316406 3.496094 -0.421875 L 3.433594 -0.632812 C 3.371094 -0.820312 3.328125 -0.84375 3.285156 -1.03125 C 3.285156 -1.09375 3.160156 -1.179688 3.179688 -1.242188 C 3.160156 -1.285156 3.097656 -1.304688 3.117188 -1.347656 L 3.011719 -1.433594 L 2.949219 -1.621094 L 2.90625 -1.726562 L 2.824219 -1.875 L 2.824219 -2 C 2.78125 -2.023438 2.78125 -2.042969 2.78125 -2.105469 C 2.78125 -2.171875 2.71875 -2.234375 2.71875 -2.316406 C 2.65625 -2.484375 2.589844 -2.613281 2.613281 -2.824219 C 2.550781 -2.992188 2.550781 -3.160156 2.613281 -3.285156 C 2.632812 -3.390625 2.71875 -3.457031 2.78125 -3.496094 C 2.824219 -3.5625 2.886719 -3.601562 2.929688 -3.625 C 3.011719 -3.6875 3.011719 -3.644531 3.203125 -3.707031 L 3.433594 -3.707031 C 3.6875 -3.644531 3.898438 -3.582031 3.960938 -3.476562 L 4.023438 -3.476562 L 4.023438 -3.496094 L 4.128906 -3.496094 L 4.152344 -3.457031 L 4.191406 -3.433594 C 4.191406 -3.519531 4.214844 -3.8125 3.6875 -4.152344 Z M 3.6875 -4.152344 "/></g></g></g></svg>